<svg width="72" height="72" viewBox="0 0 72 72" fill="none" xmlns="http://www.w3.org/2000/svg">
<g clip-path="url(#clip0_852_11975)">
<path d="M24.6731 24.0847C21.0944 26.8313 19 30.1974 19 34.8043C19 42.8663 25.197 46.144 33.1399 48.8017C39.6862 51.0165 44.0497 52.6995 44.0497 57.3065C44.0497 61.2933 40.1218 63.862 34.9727 63.862C30.2591 63.862 26.7682 62.4445 24.5861 61.027L22.6656 66.0768C25.6333 67.7598 29.8229 69 34.798 69C43.7004 69 50.8576 64.2158 50.8576 56.4201C50.8576 53.4079 49.3742 50.3957 47.6283 48.9782C52.2542 45.8778 54 41.9799 54 38.6132C54 30.994 47.803 27.7163 38.8129 24.6158C30.6954 21.7809 28.1647 19.4777 28.1647 15.4026C28.1647 10.7957 32.4412 8.13803 37.9404 8.13803C43.4395 8.13803 47.3667 10.2639 49.5488 11.7703L51.5563 6.63229C48.2393 4.24019 43.1771 3 37.8527 3C29.7352 3 21.2691 6.98684 21.2691 16.2C21.2691 19.9206 23.1896 22.8445 24.6731 24.0847ZM28.5133 26.9196C30.6954 28.2488 34.0994 29.489 38.5506 31.172C45.4455 33.7414 47.8023 36.399 47.8023 39.6768C47.8023 42.2462 46.5804 44.461 43.8743 46.4096C40.9066 44.7266 36.5424 43.2201 33.0515 41.9799C27.3784 39.8541 25.2833 37.1074 25.2833 33.7407C25.2833 30.994 26.5051 28.5136 28.5126 26.9189L28.5133 26.9196Z" fill="#BB16A3"></path>
</g>
<defs>
<clipPath id="clip0_852_11975">
<rect width="35" height="66" fill="white" transform="matrix(-1 0 0 -1 54 69)"></rect>
</clipPath>
</defs>
</svg>