<svg width="352" height="450" viewBox="0 0 352 450" fill="none" xmlns="http://www.w3.org/2000/svg">
<path opacity="0.1" d="M352 177.566C352 79.6568 273.046 0 176 0C78.9544 0 0 79.6568 0 177.566C0 243.851 36.207 301.72 89.666 332.223C73.8948 345.121 53.8292 352.866 31.9865 352.866V449.554C89.6413 449.554 141.274 423.16 175.704 381.75C210.134 423.16 261.766 449.554 319.421 449.554V352.866C297.702 352.866 277.71 345.196 261.989 332.397C315.645 301.944 352 243.975 352 177.566ZM176 96.6888C220.204 96.6888 256.189 132.969 256.189 177.591C256.189 222.212 220.228 258.492 176 258.492C131.772 258.492 95.8115 222.212 95.8115 177.591C95.8115 132.969 131.772 96.6888 176 96.6888Z" fill="#BB16A3"/>
<g filter="url(#filter0_d_1454_12614)">
<rect x="77.4399" y="77.8801" width="201.143" height="201.143" rx="100" fill="white"/>
</g>
<path d="M192.736 115.458H219.916C221.72 115.458 223.182 116.91 223.182 118.702V242.131C223.182 243.923 221.72 245.376 219.916 245.376H134.522C132.718 245.376 131.256 243.923 131.256 242.131V118.702C131.256 116.91 132.718 115.458 134.522 115.458H161.678" stroke="#BB16A3" stroke-width="4.69194" stroke-linecap="round" stroke-linejoin="round"/>
<path d="M161.678 125.099H140.959V235.734H213.479V125.099H192.736" stroke="#BB16A3" stroke-width="4.69194" stroke-linecap="round" stroke-linejoin="round"/>
<path d="M190.464 111.269H163.978C162.716 111.269 161.694 112.285 161.694 113.539V125.55C161.694 126.804 162.716 127.82 163.978 127.82H190.464C191.725 127.82 192.748 126.804 192.748 125.55V113.539C192.748 112.285 191.725 111.269 190.464 111.269Z" stroke="#BB16A3" stroke-width="4.69194" stroke-linecap="round" stroke-linejoin="round"/>
<path d="M153.225 207.305H201.093" stroke="#BB16A3" stroke-width="4.69194" stroke-linecap="round" stroke-linejoin="round"/>
<path d="M177.217 218.936H153.225" stroke="#BB16A3" stroke-width="4.69194" stroke-linecap="round" stroke-linejoin="round"/>
<path d="M179.993 142.422H201.093" stroke="#BB16A3" stroke-width="4.69194" stroke-linecap="round" stroke-linejoin="round"/>
<path d="M179.993 152.51H201.093" stroke="#BB16A3" stroke-width="4.69194" stroke-linecap="round" stroke-linejoin="round"/>
<path d="M160.891 139.967V154.965" stroke="#BB16A3" stroke-width="4.69194" stroke-linecap="round" stroke-linejoin="round"/>
<path d="M168.441 147.466H153.345" stroke="#BB16A3" stroke-width="4.69194" stroke-linecap="round" stroke-linejoin="round"/>
<path d="M201.097 169.251H153.345V191.586H201.097V169.251Z" stroke="#BB16A3" stroke-width="4.69194" stroke-linecap="round" stroke-linejoin="round"/>
<path d="M153.345 180.419H201.093" stroke="#BB16A3" stroke-width="4.69194" stroke-linecap="round" stroke-linejoin="round"/>
<path d="M177.217 169.251V191.586" stroke="#BB16A3" stroke-width="4.69194" stroke-linecap="round" stroke-linejoin="round"/>
<defs>
<filter id="filter0_d_1454_12614" x="49.0928" y="51.659" width="257.837" height="257.837" filterUnits="userSpaceOnUse" color-interpolation-filters="sRGB">
<feFlood flood-opacity="0" result="BackgroundImageFix"/>
<feColorMatrix in="SourceAlpha" type="matrix" values="0 0 0 0 0 0 0 0 0 0 0 0 0 0 0 0 0 0 127 0" result="hardAlpha"/>
<feOffset dy="2.12604"/>
<feGaussianBlur stdDeviation="14.1736"/>
<feComposite in2="hardAlpha" operator="out"/>
<feColorMatrix type="matrix" values="0 0 0 0 0.733333 0 0 0 0 0.0862745 0 0 0 0 0.639216 0 0 0 0.22 0"/>
<feBlend mode="normal" in2="BackgroundImageFix" result="effect1_dropShadow_1454_12614"/>
<feBlend mode="normal" in="SourceGraphic" in2="effect1_dropShadow_1454_12614" result="shape"/>
</filter>
</defs>
</svg>
