<svg width="352" height="450" viewBox="0 0 352 450" fill="none" xmlns="http://www.w3.org/2000/svg">
<path opacity="0.1" d="M352 177.566C352 79.6568 273.046 0 176 0C78.9544 0 0 79.6568 0 177.566C0 243.851 36.207 301.72 89.666 332.223C73.8948 345.121 53.8292 352.866 31.9865 352.866V449.554C89.6413 449.554 141.274 423.16 175.704 381.75C210.134 423.16 261.766 449.554 319.421 449.554V352.866C297.702 352.866 277.71 345.196 261.989 332.397C315.645 301.944 352 243.975 352 177.566ZM176 96.6888C220.204 96.6888 256.189 132.969 256.189 177.591C256.189 222.212 220.228 258.492 176 258.492C131.772 258.492 95.8115 222.212 95.8115 177.591C95.8115 132.969 131.772 96.6888 176 96.6888Z" fill="#BB16A3"/>
<g filter="url(#filter0_d_1453_12667)">
<rect x="77.4399" y="77.8801" width="201.143" height="201.143" rx="100" fill="white"/>
</g>
<path d="M222.228 116.487C224.787 122.787 226.036 130.588 224.787 136.96" stroke="#BB16A3" stroke-width="4.52381" stroke-linecap="round" stroke-linejoin="round"/>
<path d="M196.463 133.582C195.046 128.003 197.707 119.046 204.32 113.928" stroke="#BB16A3" stroke-width="4.52381" stroke-linecap="round" stroke-linejoin="round"/>
<path d="M227.346 108.81L222.228 116.487L204.314 113.928L201.755 103.692C201.755 103.692 210.052 100.283 216.24 101.501C222.397 102.801 227.346 108.81 227.346 108.81Z" stroke="#BB16A3" stroke-width="4.52381" stroke-linecap="round" stroke-linejoin="round"/>
<path d="M214.034 118.442C213.399 120.075 210.021 121.697 206.075 121.708C204.908 121.708 203.885 122.506 203.603 123.642C202.661 127.389 203.531 131.33 204.857 132.973C204.872 132.988 204.877 133.003 204.893 133.019C205.174 133.356 205.471 133.684 205.783 133.971C205.896 134.073 206.003 134.165 206.116 134.262C207.032 135.02 208.097 135.562 209.274 135.818C210.456 136.043 211.649 135.967 212.785 135.629C212.928 135.583 213.061 135.537 213.205 135.491C213.624 135.342 214.039 135.163 214.443 134.943C216.404 133.899 219.07 131.263 219.577 126.206C219.689 125.101 219.07 124.047 218.052 123.606C214.899 122.235 214.044 120.111 214.024 118.452" stroke="#BB16A3" stroke-width="4.52381" stroke-linecap="round" stroke-linejoin="round"/>
<path d="M173.411 153.425C173.411 153.425 173.427 153.435 173.432 153.44C178.335 155.661 184.538 152.503 187.292 146.403C190.045 140.292 188.295 133.536 183.397 131.319C183.392 131.319 183.387 131.319 183.376 131.309C183.366 131.309 183.366 131.309 183.356 131.299C178.453 129.078 172.244 132.23 169.491 138.336C166.737 144.447 168.488 151.198 173.391 153.42C173.391 153.42 173.401 153.42 173.406 153.42L173.411 153.425Z" stroke="#BB16A3" stroke-width="4.52381" stroke-linecap="round" stroke-linejoin="round"/>
<path d="M160.79 213.737H177.444" stroke="#BB16A3" stroke-width="4.52381" stroke-linecap="round" stroke-linejoin="round"/>
<path d="M186.585 140.895C186.585 140.895 178.437 144.437 173.478 142.528C170.698 141.458 169.086 142.574 168.206 143.762C167.515 144.683 167.269 145.655 167.269 145.655C167.269 145.655 154.991 142.119 149.212 153.317C143.429 164.516 132.21 177.347 132.778 187.64C133.413 198.966 137.651 202.851 145.461 203.496" stroke="#BB16A3" stroke-width="4.52381" stroke-linecap="round" stroke-linejoin="round"/>
<path d="M169.895 136.96C164.674 136.96 163.881 124.164 170.56 124.164C176.114 124.164 178.724 127.158 178.724 130.644" stroke="#BB16A3" stroke-width="4.52381" stroke-linecap="round" stroke-linejoin="round"/>
<path d="M158.231 213.737V239.328H117.286V213.737" stroke="#BB16A3" stroke-width="4.52381" stroke-linecap="round" stroke-linejoin="round"/>
<path d="M217.473 132.205L220.595 135.148C223.231 136.555 225.842 138.5 228.324 141.11C229.68 142.518 230.192 144.514 229.757 146.382L224.792 167.674L211.997 181.334C209.719 182.199 207.851 182.706 206.382 182.829C205.226 182.926 204.125 182.301 203.613 181.257C203.102 180.213 203.286 178.964 204.074 178.11L209.382 172.357L217.775 163.093L220.846 149.888" stroke="#BB16A3" stroke-width="4.52381" stroke-linecap="round" stroke-linejoin="round"/>
<path d="M193.408 134.943C196.417 133.812 200.374 132.522 204.187 131.867" stroke="#BB16A3" stroke-width="4.52381" stroke-linecap="round" stroke-linejoin="round"/>
<path d="M222.248 186.969L219.659 175.351" stroke="#BB16A3" stroke-width="4.52381" stroke-linecap="round" stroke-linejoin="round"/>
<path d="M191.499 198.383H217.059" stroke="#BB16A3" stroke-width="4.52381" stroke-linecap="round" stroke-linejoin="round"/>
<path d="M158.087 173.027L164.183 183.637L182.291 189.641L188.3 190.209C190.818 190.209 192.604 189.748 193.955 189.068C195.04 188.52 195.655 187.338 195.47 186.135C195.286 184.932 194.355 183.985 193.152 183.786L185.336 182.48L174.307 177.69L170.898 176.374L168.928 166.732L168.472 157.192" stroke="#BB16A3" stroke-width="4.52381" stroke-linecap="round" stroke-linejoin="round"/>
<path d="M150.574 165.109L153.215 172.367C153.517 173.191 154.198 173.815 155.042 174.046C155.887 174.276 156.793 174.076 157.468 173.519C159.996 171.42 164.03 168.544 168.948 166.737" stroke="#BB16A3" stroke-width="4.52381" stroke-linecap="round" stroke-linejoin="round"/>
<path d="M163.359 213.737C163.359 213.737 164.25 231.717 165.135 232.802C166.015 233.887 167.31 234.097 168.702 234.204C173.14 234.553 178.714 234.204 178.714 234.204C178.719 227.653 173.585 226.527 173.585 226.527V213.737" stroke="#BB16A3" stroke-width="4.52381" stroke-linecap="round" stroke-linejoin="round"/>
<path d="M178.325 160.974C179.86 167.822 181.278 178.775 174.302 177.685" stroke="#BB16A3" stroke-width="4.52381" stroke-linecap="round" stroke-linejoin="round"/>
<path d="M184.067 172.352L184.712 173.851L194.078 184.128" stroke="#BB16A3" stroke-width="4.52381" stroke-linecap="round" stroke-linejoin="round"/>
<path d="M219.669 154.873C219.669 154.873 218.983 161.496 209.433 159.991" stroke="#BB16A3" stroke-width="4.52381" stroke-linecap="round" stroke-linejoin="round"/>
<path d="M191.75 147.846L194.083 147.196C194.083 147.196 188.965 157.432 199.202 157.432" stroke="#BB16A3" stroke-width="4.52381" stroke-linecap="round" stroke-linejoin="round"/>
<path d="M194.078 157.432L189.718 168.769" stroke="#BB16A3" stroke-width="4.52381" stroke-linecap="round" stroke-linejoin="round"/>
<path d="M204.294 198.383V203.501" stroke="#BB16A3" stroke-width="4.52381" stroke-linecap="round" stroke-linejoin="round"/>
<path d="M194.058 198.383V203.501" stroke="#BB16A3" stroke-width="4.52381" stroke-linecap="round" stroke-linejoin="round"/>
<path d="M178.391 149.99C178.391 149.99 178.14 152.667 180.571 153.317" stroke="#BB16A3" stroke-width="4.52381" stroke-linecap="round" stroke-linejoin="round"/>
<path d="M171.103 185.935C171.103 185.935 176.144 189.088 179.886 194.452" stroke="#BB16A3" stroke-width="4.52381" stroke-linecap="round" stroke-linejoin="round"/>
<path d="M183.822 239.328V206.055C183.822 196.161 191.867 188.146 201.756 188.146H206.874C216.767 188.146 224.767 196.161 224.767 206.055V239.328" stroke="#BB16A3" stroke-width="4.52381" stroke-linecap="round" stroke-linejoin="round"/>
<path d="M183.822 211.178H224.767" stroke="#BB16A3" stroke-width="4.52381" stroke-linecap="round" stroke-linejoin="round"/>
<path d="M117.286 213.737V203.501H158.231V213.732V213.737" stroke="#BB16A3" stroke-width="4.52381" stroke-linecap="round" stroke-linejoin="round"/>
<path d="M204.294 218.855V229.091" stroke="#BB16A3" stroke-width="4.52381" stroke-linecap="round" stroke-linejoin="round"/>
<path d="M214.53 198.383V203.501" stroke="#BB16A3" stroke-width="4.52381" stroke-linecap="round" stroke-linejoin="round"/>
<path d="M214.53 218.855V221.409C217.09 221.409 219.649 223.702 219.649 226.527V229.091H188.94V226.527C188.94 223.702 191.499 221.409 194.058 221.409V218.855" stroke="#BB16A3" stroke-width="4.52381" stroke-linecap="round" stroke-linejoin="round"/>
<path d="M160.81 234.363L168.488 234.21C168.283 229.091 173.606 226.532 173.606 226.532" stroke="#BB16A3" stroke-width="4.09452" stroke-linecap="round" stroke-linejoin="round"/>
<defs>
<filter id="filter0_d_1453_12667" x="49.0928" y="51.659" width="257.837" height="257.837" filterUnits="userSpaceOnUse" color-interpolation-filters="sRGB">
<feFlood flood-opacity="0" result="BackgroundImageFix"/>
<feColorMatrix in="SourceAlpha" type="matrix" values="0 0 0 0 0 0 0 0 0 0 0 0 0 0 0 0 0 0 127 0" result="hardAlpha"/>
<feOffset dy="2.12604"/>
<feGaussianBlur stdDeviation="14.1736"/>
<feComposite in2="hardAlpha" operator="out"/>
<feColorMatrix type="matrix" values="0 0 0 0 0.733333 0 0 0 0 0.0862745 0 0 0 0 0.639216 0 0 0 0.22 0"/>
<feBlend mode="normal" in2="BackgroundImageFix" result="effect1_dropShadow_1453_12667"/>
<feBlend mode="normal" in="SourceGraphic" in2="effect1_dropShadow_1453_12667" result="shape"/>
</filter>
</defs>
</svg>
