<svg width="137" height="102" viewBox="0 0 137 102" fill="none" xmlns="http://www.w3.org/2000/svg">
<rect x="3.20428" y="43.2207" width="117" height="59" transform="rotate(-20 3.20428 43.2207)" fill="white"/>
<path d="M30.7227 75.3249L31.8128 74.9282C32.314 74.7458 32.6237 74.5053 32.7421 74.2069C32.8856 73.8992 32.8661 73.4948 32.6837 72.9937L26.8556 56.9813C26.6823 56.5052 26.4465 56.208 26.148 56.0896C25.8654 55.937 25.4736 55.9519 24.9724 56.1343L23.8823 56.5311L22.87 53.7496L40.8745 47.1965L42.6393 52.0453L39.0309 53.3587L38.7573 52.6069C38.584 52.1308 38.3481 51.8336 38.0496 51.7152C37.742 51.5717 37.3376 51.5912 36.8364 51.7736L30.3337 54.1404L33.2478 62.1466L39.7504 59.7798L40.7628 62.5613L34.2601 64.9281L36.6816 71.5811C36.864 72.0823 37.0965 72.4091 37.3791 72.5617C37.6776 72.6801 38.0649 72.6526 38.541 72.4793L39.6686 72.0689L40.6673 74.8128L31.7214 78.0688L30.7227 75.3249ZM44.2675 70.395L45.4327 69.9709C46.0091 69.7612 46.4111 69.5013 46.6389 69.1914C46.8917 68.8724 47.0146 68.4304 47.0076 67.8653L46.8265 45.0301L50.6229 43.6484L65.0872 61.2849C65.4451 61.7222 65.8233 61.9818 66.2221 62.0637C66.6208 62.1456 67.1083 62.0817 67.6847 61.8719L68.8123 61.4615L69.811 64.2054L61.241 67.3246L60.2423 64.5807L62.1217 63.8967L58.7167 59.6874L50.8984 62.533L50.9957 67.9462L52.8751 67.2621L53.8738 70.006L45.2662 73.1389L44.2675 70.395ZM57.103 57.593L50.6451 49.5571L50.7883 59.8914L57.103 57.593ZM70.3156 60.8717L71.4057 60.475C71.9068 60.2926 72.2212 60.0647 72.3487 59.7912C72.4921 59.4836 72.4772 59.0918 72.3039 58.6157L66.4485 42.5281C66.2752 42.052 66.0393 41.7548 65.7409 41.6364C65.4583 41.4838 65.0664 41.4987 64.5653 41.6811L63.7008 41.9958L62.7021 39.2519L70.8586 36.2832L71.8573 39.0271L71.1807 39.2733C70.7297 39.4375 70.4449 39.6688 70.3266 39.9673C70.2332 40.2567 70.2687 40.6269 70.4328 41.0779L73.3332 49.0465L78.6231 36.5645L76.7061 37.2622L75.7074 34.5183L83.9767 31.5086L85.0301 34.4028L83.6394 34.909C83.1633 35.0823 82.8148 35.2943 82.5938 35.545C82.3729 35.7956 82.1554 36.1728 81.9414 36.6763L78.1916 45.3201L88.5111 52.9721C88.9327 53.2727 89.3258 53.456 89.6903 53.522C90.0548 53.5879 90.4752 53.5343 90.9513 53.361L92.1917 52.9095L93.2041 55.691L84.5589 58.8376L83.5465 56.0561L85.6514 55.29L76.7266 48.6628L74.8244 53.1436L76.2882 57.1655C76.4524 57.6165 76.6632 57.9229 76.9207 58.0846C77.2033 58.2372 77.5951 58.2222 78.0963 58.0398L78.9232 57.7388L79.9356 60.5203L71.328 63.6532L70.3156 60.8717ZM94.7026 52.0382L95.7926 51.6414C96.2938 51.459 96.6036 51.2186 96.722 50.9201C96.8654 50.6125 96.8459 50.2081 96.6635 49.7069L90.8355 33.6946C90.6622 33.2184 90.4263 32.9212 90.1278 32.8028C89.8453 32.6503 89.4534 32.6652 88.9522 32.8476L87.8622 33.2443L86.8498 30.4628L104.854 23.9097L106.619 28.7585L103.011 30.0719L102.737 29.3201C102.564 28.844 102.328 28.5468 102.029 28.4284C101.722 28.285 101.317 28.3045 100.816 28.4869L94.3136 30.8536L97.2276 38.8598L103.73 36.493L104.743 39.2745L98.24 41.6413L101.168 49.6851L107.67 47.3183C108.172 47.1359 108.498 46.9034 108.651 46.6209C108.794 46.3132 108.775 45.9089 108.592 45.4077L108.319 44.6559L111.927 43.3426L113.706 48.229L95.7013 54.7821L94.7026 52.0382Z" fill="#DE0000"/>
<rect x="3.20428" y="43.2207" width="117" height="59" transform="rotate(-20 3.20428 43.2207)" stroke="#DE0000" stroke-width="5"/>
</svg>
