<svg width="72" height="72" viewBox="0 0 72 72" fill="none" xmlns="http://www.w3.org/2000/svg">
<rect width="2" height="2" fill="#BB16A3"/>
<rect x="10" width="2" height="2" fill="#BB16A3"/>
<rect x="20" width="2" height="2" fill="#BB16A3"/>
<rect x="30" width="2" height="2" fill="#BB16A3"/>
<rect x="40" width="2" height="2" fill="#BB16A3"/>
<rect x="50" width="2" height="2" fill="#BB16A3"/>
<rect x="60" width="2" height="2" fill="#BB16A3"/>
<rect x="70" width="2" height="2" fill="#BB16A3"/>
<rect y="10" width="2" height="2" fill="#BB16A3"/>
<rect x="10" y="10" width="2" height="2" fill="#BB16A3"/>
<rect x="20" y="10" width="2" height="2" fill="#BB16A3"/>
<rect x="30" y="10" width="2" height="2" fill="#BB16A3"/>
<rect x="40" y="10" width="2" height="2" fill="#BB16A3"/>
<rect x="50" y="10" width="2" height="2" fill="#BB16A3"/>
<rect x="60" y="10" width="2" height="2" fill="#BB16A3"/>
<rect x="70" y="10" width="2" height="2" fill="#BB16A3"/>
<rect y="20" width="2" height="2" fill="#BB16A3"/>
<rect x="10" y="20" width="2" height="2" fill="#BB16A3"/>
<rect x="20" y="20" width="2" height="2" fill="#BB16A3"/>
<rect x="30" y="20" width="2" height="2" fill="#BB16A3"/>
<rect x="40" y="20" width="2" height="2" fill="#BB16A3"/>
<rect x="50" y="20" width="2" height="2" fill="#BB16A3"/>
<rect x="60" y="20" width="2" height="2" fill="#BB16A3"/>
<rect x="70" y="20" width="2" height="2" fill="#BB16A3"/>
<rect y="30" width="2" height="2" fill="#BB16A3"/>
<rect x="10" y="30" width="2" height="2" fill="#BB16A3"/>
<rect x="20" y="30" width="2" height="2" fill="#BB16A3"/>
<rect x="30" y="30" width="2" height="2" fill="#BB16A3"/>
<rect x="40" y="30" width="2" height="2" fill="#BB16A3"/>
<rect x="50" y="30" width="2" height="2" fill="#BB16A3"/>
<rect x="60" y="30" width="2" height="2" fill="#BB16A3"/>
<rect x="70" y="30" width="2" height="2" fill="#BB16A3"/>
<rect y="40" width="2" height="2" fill="#BB16A3"/>
<rect x="10" y="40" width="2" height="2" fill="#BB16A3"/>
<rect x="20" y="40" width="2" height="2" fill="#BB16A3"/>
<rect x="30" y="40" width="2" height="2" fill="#BB16A3"/>
<rect x="40" y="40" width="2" height="2" fill="#BB16A3"/>
<rect x="50" y="40" width="2" height="2" fill="#BB16A3"/>
<rect x="60" y="40" width="2" height="2" fill="#BB16A3"/>
<rect x="70" y="40" width="2" height="2" fill="#BB16A3"/>
<rect y="50" width="2" height="2" fill="#BB16A3"/>
<rect x="10" y="50" width="2" height="2" fill="#BB16A3"/>
<rect x="20" y="50" width="2" height="2" fill="#BB16A3"/>
<rect x="30" y="50" width="2" height="2" fill="#BB16A3"/>
<rect x="40" y="50" width="2" height="2" fill="#BB16A3"/>
<rect x="50" y="50" width="2" height="2" fill="#BB16A3"/>
<rect x="60" y="50" width="2" height="2" fill="#BB16A3"/>
<rect x="70" y="50" width="2" height="2" fill="#BB16A3"/>
<rect y="60" width="2" height="2" fill="#BB16A3"/>
<rect x="10" y="60" width="2" height="2" fill="#BB16A3"/>
<rect x="20" y="60" width="2" height="2" fill="#BB16A3"/>
<rect x="30" y="60" width="2" height="2" fill="#BB16A3"/>
<rect x="40" y="60" width="2" height="2" fill="#BB16A3"/>
<rect x="50" y="60" width="2" height="2" fill="#BB16A3"/>
<rect x="60" y="60" width="2" height="2" fill="#BB16A3"/>
<rect x="70" y="60" width="2" height="2" fill="#BB16A3"/>
<rect y="70" width="2" height="2" fill="#BB16A3"/>
<rect x="10" y="70" width="2" height="2" fill="#BB16A3"/>
<rect x="20" y="70" width="2" height="2" fill="#BB16A3"/>
<rect x="30" y="70" width="2" height="2" fill="#BB16A3"/>
<rect x="40" y="70" width="2" height="2" fill="#BB16A3"/>
<rect x="50" y="70" width="2" height="2" fill="#BB16A3"/>
<rect x="60" y="70" width="2" height="2" fill="#BB16A3"/>
<rect x="70" y="70" width="2" height="2" fill="#BB16A3"/>
</svg>
