<svg width="187" height="49" viewBox="0 0 187 49" fill="none" xmlns="http://www.w3.org/2000/svg">
<path fill-rule="evenodd" clip-rule="evenodd" d="M22 36.9515C28.8851 36.9515 34.4667 31.37 34.4667 24.4849C34.4667 17.5997 28.8851 12.0182 22 12.0182C15.1148 12.0182 9.53333 17.5997 9.53333 24.4849C9.53333 31.37 15.1148 36.9515 22 36.9515ZM22 46.4849C34.1503 46.4849 44 36.6351 44 24.4849C44 12.3346 34.1503 2.48486 22 2.48486C9.84973 2.48486 0 12.3346 0 24.4849C0 36.6351 9.84973 46.4849 22 46.4849Z" fill="#6938EF"/>
<path d="M22.252 24.9667C24.5431 22.6756 28.2577 22.6756 30.5488 24.9667L41.9567 36.3747C44.2478 38.6658 44.2478 42.3804 41.9567 44.6714C39.6657 46.9625 35.9511 46.9625 33.66 44.6714L22.252 33.2634C19.961 30.9724 19.961 27.2578 22.252 24.9667Z" fill="#F670C7"/>
<path d="M25.4551 36.4664L32.7004 43.7118C36.1756 41.7736 39.0709 38.9206 41.0605 35.4785L33.8746 28.2925C32.6124 32.2319 29.4441 35.3182 25.4551 36.4664Z" fill="#6519BA"/>
<path d="M79.5198 36.5847C78.8851 37.3687 78.1105 37.9661 77.1958 38.3767C76.2998 38.7874 75.3105 38.9927 74.2278 38.9927C72.7718 38.9927 71.4558 38.6754 70.2798 38.0407C69.1038 37.4247 67.7598 36.3234 66.2478 34.7367C64.4745 34.5127 62.8878 33.9434 61.4878 33.0287C60.1065 32.1141 59.0238 30.9381 58.2398 29.5007C57.4745 28.0447 57.0918 26.4394 57.0918 24.6847C57.0918 22.7621 57.5491 21.0354 58.4638 19.5047C59.3971 17.9554 60.6758 16.7421 62.2998 15.8647C63.9425 14.9874 65.7811 14.5487 67.8158 14.5487C69.8505 14.5487 71.6798 14.9874 73.3038 15.8647C74.9278 16.7421 76.2065 17.9554 77.1398 19.5047C78.0731 21.0354 78.5398 22.7621 78.5398 24.6847C78.5398 26.9621 77.8958 28.9594 76.6078 30.6767C75.3385 32.3941 73.6491 33.5887 71.5398 34.2607C72.0065 34.7461 72.4545 35.0914 72.8838 35.2967C73.3318 35.5207 73.8078 35.6327 74.3118 35.6327C75.5251 35.6327 76.5891 35.1474 77.5038 34.1767L79.5198 36.5847ZM61.6838 24.6847C61.6838 25.8981 61.9451 26.9807 62.4678 27.9327C63.0091 28.8847 63.7465 29.6314 64.6798 30.1727C65.6131 30.6954 66.6585 30.9567 67.8158 30.9567C68.9731 30.9567 70.0185 30.6954 70.9518 30.1727C71.8851 29.6314 72.6131 28.8847 73.1358 27.9327C73.6771 26.9807 73.9478 25.8981 73.9478 24.6847C73.9478 23.4714 73.6771 22.3887 73.1358 21.4367C72.6131 20.4847 71.8851 19.7474 70.9518 19.2247C70.0185 18.6834 68.9731 18.4127 67.8158 18.4127C66.6585 18.4127 65.6131 18.6834 64.6798 19.2247C63.7465 19.7474 63.0091 20.4847 62.4678 21.4367C61.9451 22.3887 61.6838 23.4714 61.6838 24.6847Z" fill="#101828"/>
<path d="M96.8168 19.4207V34.4847H92.6728V32.6927C92.0941 33.3461 91.4035 33.8501 90.6008 34.2047C89.7981 34.5407 88.9301 34.7087 87.9968 34.7087C86.0181 34.7087 84.4501 34.1394 83.2928 33.0007C82.1355 31.8621 81.5568 30.1727 81.5568 27.9327V19.4207H85.9248V27.2887C85.9248 29.7154 86.9421 30.9287 88.9768 30.9287C90.0221 30.9287 90.8621 30.5927 91.4968 29.9207C92.1315 29.2301 92.4488 28.2127 92.4488 26.8687V19.4207H96.8168Z" fill="#101828"/>
<path d="M108.031 34.7087C106.445 34.7087 105.017 34.3821 103.747 33.7287C102.497 33.0567 101.517 32.1327 100.807 30.9567C100.098 29.7807 99.7435 28.4461 99.7435 26.9527C99.7435 25.4594 100.098 24.1247 100.807 22.9487C101.517 21.7727 102.497 20.8581 103.747 20.2047C105.017 19.5327 106.445 19.1967 108.031 19.1967C109.618 19.1967 111.037 19.5327 112.287 20.2047C113.538 20.8581 114.518 21.7727 115.227 22.9487C115.937 24.1247 116.291 25.4594 116.291 26.9527C116.291 28.4461 115.937 29.7807 115.227 30.9567C114.518 32.1327 113.538 33.0567 112.287 33.7287C111.037 34.3821 109.618 34.7087 108.031 34.7087ZM108.031 31.1247C109.151 31.1247 110.066 30.7514 110.775 30.0047C111.503 29.2394 111.867 28.2221 111.867 26.9527C111.867 25.6834 111.503 24.6754 110.775 23.9287C110.066 23.1634 109.151 22.7807 108.031 22.7807C106.911 22.7807 105.987 23.1634 105.259 23.9287C104.531 24.6754 104.167 25.6834 104.167 26.9527C104.167 28.2221 104.531 29.2394 105.259 30.0047C105.987 30.7514 106.911 31.1247 108.031 31.1247Z" fill="#101828"/>
<path d="M128.927 33.7567C128.498 34.0741 127.966 34.3167 127.331 34.4847C126.715 34.6341 126.062 34.7087 125.371 34.7087C123.579 34.7087 122.188 34.2514 121.199 33.3367C120.228 32.4221 119.743 31.0781 119.743 29.3047V23.1167H117.419V19.7567H119.743V16.0887H124.111V19.7567H127.863V23.1167H124.111V29.2487C124.111 29.8834 124.27 30.3781 124.587 30.7327C124.923 31.0687 125.39 31.2367 125.987 31.2367C126.678 31.2367 127.266 31.0501 127.751 30.6767L128.927 33.7567Z" fill="#101828"/>
<path d="M131.379 19.4207H135.747V34.4847H131.379V19.4207ZM133.563 17.3207C132.76 17.3207 132.107 17.0874 131.603 16.6207C131.099 16.1541 130.847 15.5754 130.847 14.8847C130.847 14.1941 131.099 13.6154 131.603 13.1487C132.107 12.6821 132.76 12.4487 133.563 12.4487C134.366 12.4487 135.019 12.6727 135.523 13.1207C136.027 13.5687 136.279 14.1287 136.279 14.8007C136.279 15.5287 136.027 16.1354 135.523 16.6207C135.019 17.0874 134.366 17.3207 133.563 17.3207Z" fill="#101828"/>
<path d="M154.557 27.0087C154.557 27.0647 154.529 27.4567 154.473 28.1847H143.077C143.282 29.1181 143.768 29.8554 144.533 30.3967C145.298 30.9381 146.25 31.2087 147.389 31.2087C148.173 31.2087 148.864 31.0967 149.461 30.8727C150.077 30.6301 150.646 30.2567 151.169 29.7527L153.493 32.2727C152.074 33.8967 150.002 34.7087 147.277 34.7087C145.578 34.7087 144.076 34.3821 142.769 33.7287C141.462 33.0567 140.454 32.1327 139.745 30.9567C139.036 29.7807 138.681 28.4461 138.681 26.9527C138.681 25.4781 139.026 24.1527 139.717 22.9767C140.426 21.7821 141.388 20.8581 142.601 20.2047C143.833 19.5327 145.205 19.1967 146.717 19.1967C148.192 19.1967 149.526 19.5141 150.721 20.1487C151.916 20.7834 152.849 21.6981 153.521 22.8927C154.212 24.0687 154.557 25.4407 154.557 27.0087ZM146.745 22.5007C145.756 22.5007 144.925 22.7807 144.253 23.3407C143.581 23.9007 143.17 24.6661 143.021 25.6367H150.441C150.292 24.6847 149.881 23.9287 149.209 23.3687C148.537 22.7901 147.716 22.5007 146.745 22.5007Z" fill="#101828"/>
<path d="M166.621 19.1967C168.488 19.1967 169.99 19.7567 171.129 20.8767C172.286 21.9967 172.865 23.6581 172.865 25.8607V34.4847H168.497V26.5327C168.497 25.3381 168.236 24.4514 167.713 23.8727C167.19 23.2754 166.434 22.9767 165.445 22.9767C164.344 22.9767 163.466 23.3221 162.813 24.0127C162.16 24.6847 161.833 25.6927 161.833 27.0367V34.4847H157.465V19.4207H161.637V21.1847C162.216 20.5501 162.934 20.0647 163.793 19.7287C164.652 19.3741 165.594 19.1967 166.621 19.1967Z" fill="#101828"/>
<path d="M186.54 33.7567C186.111 34.0741 185.579 34.3167 184.944 34.4847C184.328 34.6341 183.675 34.7087 182.984 34.7087C181.192 34.7087 179.802 34.2514 178.812 33.3367C177.842 32.4221 177.356 31.0781 177.356 29.3047V23.1167H175.032V19.7567H177.356V16.0887H181.724V19.7567H185.476V23.1167H181.724V29.2487C181.724 29.8834 181.883 30.3781 182.2 30.7327C182.536 31.0687 183.003 31.2367 183.6 31.2367C184.291 31.2367 184.879 31.0501 185.364 30.6767L186.54 33.7567Z" fill="#101828"/>
</svg>
