<svg width="258" height="258" viewBox="49 51 258 258" fill="none" xmlns="http://www.w3.org/2000/svg">
<g filter="url(#filter0_d_822_11543)">
<rect x="77.4399" y="77.1572" width="201.143" height="201.143" rx="100" fill="white"></rect>
</g>
<path d="M195.729 143.165C197.405 147.87 197.01 151.133 192.166 152.906C185.03 155.553 180.541 151.705 178.878 149.873C178.446 149.385 178.348 148.702 178.679 148.137C180.015 145.821 180.898 142.533 180.898 137.947C181.025 117.872 189.196 110.914 189.824 110.405" stroke="#BB16A3" stroke-width="4.25207" stroke-linecap="round" stroke-linejoin="round"></path>
<path d="M215.134 132.101C212.232 131.006 202.152 127.629 200.239 122.674C200.239 122.674 195.157 128.877 188.848 130.434C188.848 130.434 188.848 133.336 192.174 138.698C194.804 142.945 198.678 145.388 202.123 145.388C206.153 145.388 209.712 142.953 212.063 139.211C214.46 135.397 215.13 132.101 215.13 132.101H215.134Z" stroke="#BB16A3" stroke-width="4.25207" stroke-linecap="round" stroke-linejoin="round"></path>
<path d="M213.136 110.392C213.768 110.902 221.956 117.868 222.062 137.951C222.079 142.537 222.957 145.817 224.285 148.142C224.608 148.697 224.514 149.38 224.086 149.86C222.435 151.701 217.922 155.553 210.786 152.914C207.354 151.65 207.001 147.857 207.914 143.594" stroke="#BB16A3" stroke-width="4.25207" stroke-linecap="round" stroke-linejoin="round"></path>
<path d="M213.522 108.997V101.67C213.522 99.8247 212.025 98.3271 210.179 98.3271H192.789C190.944 98.3271 189.446 99.8247 189.446 101.67V109.018C189.446 110.202 190.218 111.267 191.377 111.636C194.864 112.756 202.678 114.512 211.541 111.636C212.716 111.254 213.526 110.193 213.526 108.993L213.522 108.997Z" stroke="#BB16A3" stroke-width="4.25207" stroke-linecap="round" stroke-linejoin="round"></path>
<path d="M187.554 170.499V176.574" stroke="#BB16A3" stroke-width="4.25207" stroke-linecap="round" stroke-linejoin="round"></path>
<path d="M190.558 173.507L184.546 173.562" stroke="#BB16A3" stroke-width="4.25207" stroke-linecap="round" stroke-linejoin="round"></path>
<path d="M156.334 221.828C152.219 223.144 147.332 223.322 147.332 223.322" stroke="#BB16A3" stroke-width="4.25207" stroke-linecap="round" stroke-linejoin="round"></path>
<path d="M139.644 207.612L137.239 218.753" stroke="#BB16A3" stroke-width="4.25207" stroke-linecap="round" stroke-linejoin="round"></path>
<path d="M176.494 218.753L174.093 207.612" stroke="#BB16A3" stroke-width="4.25207" stroke-linecap="round" stroke-linejoin="round"></path>
<path d="M153.466 209.012C154.514 208.999 155.549 209.203 156.546 209.674" stroke="#BB16A3" stroke-width="4.25207" stroke-linecap="round" stroke-linejoin="round"></path>
<path d="M163.593 178.386C164.242 181.721 166.669 184.576 170.096 185.925L172.93 187.024" stroke="#BB16A3" stroke-width="4.25207" stroke-linecap="round" stroke-linejoin="round"></path>
<path d="M187.194 203.539L193.413 230.805C193.472 231.073 193.506 231.344 193.506 231.616C193.506 236.333 189.268 239.918 184.631 239.116C182.675 238.781 180.872 237.848 179.46 236.448L166.215 223.313C166.215 223.313 144.663 222.52 153.963 212.092C163.262 201.66 178.471 221.048 178.471 221.048" stroke="#BB16A3" stroke-width="4.25207" stroke-linecap="round" stroke-linejoin="round"></path>
<path d="M149.937 178.454C149.423 180.965 147.9 183.21 145.698 184.716C144.998 185.208 144.252 185.607 143.433 185.921L134.43 189.421C131.401 190.604 129.11 192.967 128.198 195.869C128.122 196.09 128.054 196.293 127.999 196.514L126.646 202.398L120.303 230.805C120.244 231.073 120.214 231.344 120.214 231.616C120.214 235.892 123.689 239.227 127.787 239.227C128.215 239.227 128.648 239.193 129.085 239.116C131.041 238.781 132.848 237.848 134.257 236.448L147.501 223.309C147.501 223.309 147.531 223.309 147.595 223.309C147.654 223.309 147.743 223.301 147.858 223.292C149.101 223.22 153.326 222.902 156.852 221.701" stroke="#BB16A3" stroke-width="4.25207" stroke-linecap="round" stroke-linejoin="round"></path>
<path d="M156.86 209.835C155.761 209.292 154.624 209.042 153.466 209.016C144.854 208.808 135.253 221.052 135.253 221.052" stroke="#BB16A3" stroke-width="4.25207" stroke-linecap="round" stroke-linejoin="round"></path>
<path d="M156.546 222.227V245.913" stroke="#BB16A3" stroke-width="4.25207" stroke-linecap="round" stroke-linejoin="round"></path>
<path d="M168.378 185.921C157.255 193.773 149.131 189.421 146.063 187.104C145.181 186.413 144.718 185.921 144.718 185.921" stroke="#BB16A3" stroke-width="4.25207" stroke-linecap="round" stroke-linejoin="round"></path>
<path d="M194.681 159.507L198.449 165.977C199.412 167.631 201.783 167.674 202.801 166.049L206.857 159.588" stroke="#BB16A3" stroke-width="4.25207" stroke-linecap="round" stroke-linejoin="round"></path>
<path d="M179.824 157.759L185.968 154.187" stroke="#BB16A3" stroke-width="4.25207" stroke-linecap="round" stroke-linejoin="round"></path>
<path d="M189.039 203.874L214.663 208.113C218.613 208.757 222.652 207.175 224.972 203.874C228.68 198.635 230.534 191.987 231.396 185.585" stroke="#BB16A3" stroke-width="4.25207" stroke-linecap="round" stroke-linejoin="round"></path>
<path d="M216.874 177.529L215.24 189.658C214.188 193.404 210.548 195.776 206.738 195.194L190.371 193.76" stroke="#BB16A3" stroke-width="4.25207" stroke-linecap="round" stroke-linejoin="round"></path>
<path d="M189.03 203.875C189.03 203.875 176.265 202.254 173.762 194.248C171.259 186.239 172.795 184.89 179.018 185.925C186.417 187.155 190.367 193.761 190.367 193.761" stroke="#BB16A3" stroke-width="4.25207" stroke-linecap="round" stroke-linejoin="round"></path>
<path d="M226.771 200.968L228.409 245.964" stroke="#BB16A3" stroke-width="4.25207" stroke-linecap="round" stroke-linejoin="round"></path>
<path d="M216.097 183.354C216.097 183.354 228.124 187.902 235.324 183.354C237.356 182.06 235.986 172.357 232.986 166.626C231.048 162.927 228.298 159.753 224.968 157.326L219.037 153.233" stroke="#BB16A3" stroke-width="4.25207" stroke-linecap="round" stroke-linejoin="round"></path>
<path d="M144.718 185.921C144.718 185.921 145.181 186.413 146.067 187.1" stroke="#BB16A3" stroke-width="4.25207" stroke-linecap="round" stroke-linejoin="round"></path>
<path d="M145.698 184.716C145.363 183.388 144.455 181.292 142.071 180.499C133.569 177.682 130.303 183.095 129.641 186.039C129.119 188.373 128.898 190.757 129.649 193.031" stroke="#BB16A3" stroke-width="4.25207" stroke-linecap="round" stroke-linejoin="round"></path>
<path d="M164.115 142.491C164.403 141.697 164.552 140.862 164.552 139.992C164.552 135.733 160.941 132.292 156.491 132.292C152.041 132.292 148.43 135.737 148.43 139.992C148.43 140.862 148.575 141.693 148.867 142.491" stroke="#BB16A3" stroke-width="4.25207" stroke-linecap="round" stroke-linejoin="round"></path>
<path d="M142.877 161.319C142.877 161.319 140.565 160.139 140.802 156.783C140.781 156.618 140.781 156.44 140.781 156.274C140.781 147.59 147.811 140.526 156.491 140.526C165.171 140.526 172.201 147.586 172.201 156.274C172.201 156.44 172.201 156.601 172.179 156.767C172.353 159.723 170.105 161.302 170.105 161.302" stroke="#BB16A3" stroke-width="4.25207" stroke-linecap="round" stroke-linejoin="round"></path>
<path d="M168.836 168.395C168.981 168.412 169.146 168.433 169.29 168.433C171.216 168.433 172.756 166.804 172.756 164.802C172.756 163.1 171.632 161.662 170.105 161.302C160.22 160.971 156.491 150.191 156.491 150.191C156.491 150.191 152.189 162.706 142.877 161.319C141.388 161.696 140.281 163.134 140.281 164.802C140.281 166.808 141.842 168.433 143.747 168.433C143.874 168.433 144.018 168.433 144.145 168.416L144.459 170.864C144.489 171.102 144.502 171.343 144.515 171.585C144.65 173.863 146.067 175.819 148.108 176.846C148.965 177.279 149.801 177.754 150.539 178.348C152.261 179.743 154.234 180.473 156.304 180.503H156.682C158.752 180.477 160.725 179.743 162.447 178.348C163.186 177.75 164.021 177.279 164.878 176.846C166.915 175.819 168.332 173.859 168.472 171.585C168.484 171.343 168.497 171.102 168.527 170.864L168.841 168.416V168.399L168.836 168.395Z" stroke="#BB16A3" stroke-width="4.25207" stroke-linecap="round" stroke-linejoin="round"></path>
<path d="M134.261 236.452V245.964" stroke="#BB16A3" stroke-width="4.25207" stroke-linecap="round" stroke-linejoin="round"></path>
<path d="M179.459 236.448V245.964" stroke="#BB16A3" stroke-width="4.25207" stroke-linecap="round" stroke-linejoin="round"></path>
<defs>
<filter id="filter0_d_822_11543" x="49.0928" y="50.9361" width="257.837" height="257.837" filterUnits="userSpaceOnUse" color-interpolation-filters="sRGB">
<feFlood flood-opacity="0" result="BackgroundImageFix"></feFlood>
<feColorMatrix in="SourceAlpha" type="matrix" values="0 0 0 0 0 0 0 0 0 0 0 0 0 0 0 0 0 0 127 0" result="hardAlpha"></feColorMatrix>
<feOffset dy="2.12604"></feOffset>
<feGaussianBlur stdDeviation="14.1736"></feGaussianBlur>
<feComposite in2="hardAlpha" operator="out"></feComposite>
<feColorMatrix type="matrix" values="0 0 0 0 0.733333 0 0 0 0 0.0862745 0 0 0 0 0.639216 0 0 0 0.22 0"></feColorMatrix>
<feBlend mode="normal" in2="BackgroundImageFix" result="effect1_dropShadow_822_11543"></feBlend>
<feBlend mode="normal" in="SourceGraphic" in2="effect1_dropShadow_822_11543" result="shape"></feBlend>
</filter>
</defs>
</svg>