<svg width="258" height="258" viewBox="49 51 258 258" fill="none" xmlns="http://www.w3.org/2000/svg">
<g filter="url(#filter0_d_1453_12566)">
<rect x="77.4399" y="77.8801" width="201.143" height="201.143" rx="100" fill="white"></rect>
</g>
<path d="M235.515 182.26C242.294 150.928 226.631 126.131 204.16 126.131C183.521 126.131 175.971 154.32 175.971 154.32C175.971 154.32 168.426 126.131 147.782 126.131C125.217 126.131 109.511 151.135 116.511 182.65" stroke="#BB16A3" stroke-width="5" stroke-linecap="round" stroke-linejoin="round"></path>
<path d="M126.359 204.168C143.441 230.637 175.976 248.283 175.976 248.283C175.976 248.283 208.149 231.609 225.588 206.376" stroke="#BB16A3" stroke-width="5" stroke-linecap="round" stroke-linejoin="round"></path>
<path d="M108.069 194.254H143.305L155.05 156.669L171.493 222.443L178.541 194.254H194.984L204.38 166.066L213.777 194.254H244.315" stroke="#BB16A3" stroke-width="5" stroke-linecap="round" stroke-linejoin="round"></path>
<defs>
<filter id="filter0_d_1453_12566" x="49.0928" y="51.659" width="257.837" height="257.837" filterUnits="userSpaceOnUse" color-interpolation-filters="sRGB">
<feFlood flood-opacity="0" result="BackgroundImageFix"></feFlood>
<feColorMatrix in="SourceAlpha" type="matrix" values="0 0 0 0 0 0 0 0 0 0 0 0 0 0 0 0 0 0 127 0" result="hardAlpha"></feColorMatrix>
<feOffset dy="2.12604"></feOffset>
<feGaussianBlur stdDeviation="14.1736"></feGaussianBlur>
<feComposite in2="hardAlpha" operator="out"></feComposite>
<feColorMatrix type="matrix" values="0 0 0 0 0.733333 0 0 0 0 0.0862745 0 0 0 0 0.639216 0 0 0 0.22 0"></feColorMatrix>
<feBlend mode="normal" in2="BackgroundImageFix" result="effect1_dropShadow_1453_12566"></feBlend>
<feBlend mode="normal" in="SourceGraphic" in2="effect1_dropShadow_1453_12566" result="shape"></feBlend>
</filter>
</defs>
</svg>