<svg width="258" height="258" viewBox="49 51 258 258" fill="none" xmlns="http://www.w3.org/2000/svg">
<g filter="url(#filter0_d_1454_12614)">
<rect x="77.4399" y="77.8801" width="201.143" height="201.143" rx="100" fill="white"></rect>
</g>
<path d="M192.736 115.458H219.916C221.72 115.458 223.182 116.91 223.182 118.702V242.131C223.182 243.923 221.72 245.376 219.916 245.376H134.522C132.718 245.376 131.256 243.923 131.256 242.131V118.702C131.256 116.91 132.718 115.458 134.522 115.458H161.678" stroke="#BB16A3" stroke-width="4.69194" stroke-linecap="round" stroke-linejoin="round"></path>
<path d="M161.678 125.099H140.959V235.734H213.479V125.099H192.736" stroke="#BB16A3" stroke-width="4.69194" stroke-linecap="round" stroke-linejoin="round"></path>
<path d="M190.464 111.269H163.978C162.716 111.269 161.694 112.285 161.694 113.539V125.55C161.694 126.804 162.716 127.82 163.978 127.82H190.464C191.725 127.82 192.748 126.804 192.748 125.55V113.539C192.748 112.285 191.725 111.269 190.464 111.269Z" stroke="#BB16A3" stroke-width="4.69194" stroke-linecap="round" stroke-linejoin="round"></path>
<path d="M153.225 207.305H201.093" stroke="#BB16A3" stroke-width="4.69194" stroke-linecap="round" stroke-linejoin="round"></path>
<path d="M177.217 218.936H153.225" stroke="#BB16A3" stroke-width="4.69194" stroke-linecap="round" stroke-linejoin="round"></path>
<path d="M179.993 142.422H201.093" stroke="#BB16A3" stroke-width="4.69194" stroke-linecap="round" stroke-linejoin="round"></path>
<path d="M179.993 152.51H201.093" stroke="#BB16A3" stroke-width="4.69194" stroke-linecap="round" stroke-linejoin="round"></path>
<path d="M160.891 139.967V154.965" stroke="#BB16A3" stroke-width="4.69194" stroke-linecap="round" stroke-linejoin="round"></path>
<path d="M168.441 147.466H153.345" stroke="#BB16A3" stroke-width="4.69194" stroke-linecap="round" stroke-linejoin="round"></path>
<path d="M201.097 169.251H153.345V191.586H201.097V169.251Z" stroke="#BB16A3" stroke-width="4.69194" stroke-linecap="round" stroke-linejoin="round"></path>
<path d="M153.345 180.419H201.093" stroke="#BB16A3" stroke-width="4.69194" stroke-linecap="round" stroke-linejoin="round"></path>
<path d="M177.217 169.251V191.586" stroke="#BB16A3" stroke-width="4.69194" stroke-linecap="round" stroke-linejoin="round"></path>
<defs>
<filter id="filter0_d_1454_12614" x="49.0928" y="51.659" width="257.837" height="257.837" filterUnits="userSpaceOnUse" color-interpolation-filters="sRGB">
<feFlood flood-opacity="0" result="BackgroundImageFix"></feFlood>
<feColorMatrix in="SourceAlpha" type="matrix" values="0 0 0 0 0 0 0 0 0 0 0 0 0 0 0 0 0 0 127 0" result="hardAlpha"></feColorMatrix>
<feOffset dy="2.12604"></feOffset>
<feGaussianBlur stdDeviation="14.1736"></feGaussianBlur>
<feComposite in2="hardAlpha" operator="out"></feComposite>
<feColorMatrix type="matrix" values="0 0 0 0 0.733333 0 0 0 0 0.0862745 0 0 0 0 0.639216 0 0 0 0.22 0"></feColorMatrix>
<feBlend mode="normal" in2="BackgroundImageFix" result="effect1_dropShadow_1454_12614"></feBlend>
<feBlend mode="normal" in="SourceGraphic" in2="effect1_dropShadow_1454_12614" result="shape"></feBlend>
</filter>
</defs>
</svg>