<svg width="203" height="65" viewBox="0 0 203 65" fill="none" xmlns="http://www.w3.org/2000/svg">
<path d="M75.6362 12.1779V3.72974H79.6558C80.7759 3.72974 81.6195 3.95459 82.1866 4.40788C82.7538 4.86116 83.0373 5.53573 83.0373 6.42445C83.0373 7.31317 82.7467 8.02343 82.1689 8.47314C81.5876 8.92285 80.705 9.14771 79.514 9.14771H77.1037V12.1779H75.6362ZM79.5246 7.91635C80.2052 7.91635 80.7121 7.795 81.0417 7.54873C81.3714 7.30246 81.5344 6.92056 81.5344 6.39946C81.5344 5.87837 81.3749 5.52859 81.0524 5.30016C80.7298 5.07174 80.23 4.95753 79.5459 4.95753H77.1037V7.91635H79.5246Z" fill="#BB16A3"></path>
<path d="M94.0149 7.95559C94.0149 8.84074 93.8235 9.61525 93.4443 10.2791C93.0614 10.9465 92.512 11.4641 91.7925 11.8353C91.0729 12.2065 90.2222 12.3921 89.2439 12.3921C88.2656 12.3921 87.4751 12.2172 86.7591 11.8674C86.0431 11.5176 85.4866 11.0037 85.0896 10.3362C84.6926 9.66879 84.4941 8.87287 84.4941 7.95916C84.4941 7.04546 84.6855 6.29951 85.0648 5.63564C85.4441 4.96821 85.9935 4.45069 86.7166 4.07949C87.4362 3.7083 88.2869 3.52271 89.2652 3.52271C90.2435 3.52271 91.0339 3.69759 91.7499 4.05094C92.4659 4.40072 93.0224 4.91111 93.4194 5.58211C93.8164 6.25311 94.0149 7.04546 94.0149 7.96273M92.4766 7.96273C92.4766 6.9598 92.1966 6.17816 91.6365 5.62137C91.0765 5.06101 90.2896 4.78262 89.2687 4.78262C88.2479 4.78262 87.4574 5.06101 86.8903 5.62137C86.3232 6.18172 86.0396 6.9598 86.0396 7.96273C86.0396 8.96566 86.3196 9.74374 86.8797 10.3041C87.4397 10.8645 88.2301 11.1428 89.2474 11.1428C90.2647 11.1428 91.0587 10.8645 91.6259 10.3041C92.193 9.74374 92.4766 8.96209 92.4766 7.96273Z" fill="#BB16A3"></path>
<path d="M95.8866 12.1779V3.72974H97.3789V10.9144H102.699L102.49 12.1779H95.8866Z" fill="#BB16A3"></path>
<path d="M109.998 6.06052C109.874 5.72859 109.707 5.46448 109.505 5.26817C109.299 5.07187 109.048 4.9291 108.739 4.84344C108.431 4.75778 108.052 4.71138 107.598 4.71138C106.846 4.71138 106.262 4.81132 105.847 5.01476C105.432 5.2182 105.223 5.50731 105.223 5.88564C105.223 6.24255 105.358 6.51024 105.631 6.69227C105.9 6.87429 106.371 7.01349 107.045 7.11699L108.782 7.37754C109.76 7.52745 110.48 7.80584 110.937 8.21272C111.394 8.61961 111.625 9.1764 111.625 9.88666C111.625 10.6826 111.284 11.3 110.607 11.739C109.93 12.1781 108.98 12.3958 107.757 12.3958C106.425 12.3958 105.418 12.1638 104.73 11.6998C104.046 11.2322 103.642 10.5113 103.525 9.53331H105.028C105.131 10.1187 105.4 10.5398 105.833 10.8039C106.269 11.068 106.907 11.2001 107.754 11.2001C108.512 11.2001 109.097 11.0859 109.498 10.8575C109.902 10.629 110.104 10.3042 110.104 9.88666C110.104 9.54045 109.966 9.26919 109.686 9.06932C109.409 8.87302 108.977 8.73025 108.388 8.64459L106.885 8.41974C106.109 8.30195 105.496 8.13777 105.039 7.93433C104.585 7.73089 104.255 7.4632 104.05 7.13484C103.844 6.80648 103.745 6.40316 103.745 5.92133C103.745 5.16467 104.082 4.57219 104.762 4.15103C105.439 3.72987 106.389 3.51929 107.612 3.51929C108.364 3.51929 108.994 3.60138 109.505 3.76556C110.015 3.92974 110.423 4.18315 110.731 4.52222C111.043 4.86129 111.267 5.30386 111.408 5.84638L109.987 6.06052H109.998Z" fill="#BB16A3"></path>
<path d="M120.103 12.1779L116.732 7.75217L115.063 9.0799V12.1779H113.571V3.72974H115.063V7.57728L119.667 3.72974H121.514L117.799 6.87773L121.865 12.1779H120.103Z" fill="#BB16A3"></path>
<path d="M124.874 3.72974H123.382V12.1779H124.874V3.72974Z" fill="#BB16A3"></path>
<path d="M127.295 12.1779V3.72974H134.133V4.99679H128.787V7.19538H133.877V8.46243H128.787V10.9144H134.391L134.182 12.1779H127.295Z" fill="#BB16A3"></path>
<path d="M81.5238 20.2586C81.3998 19.9266 81.2332 19.6625 81.0311 19.4662C80.8255 19.2699 80.5739 19.1272 80.2655 19.0379C79.9607 18.9523 79.5778 18.9094 79.1241 18.9094C78.3727 18.9094 77.7878 19.0094 77.3731 19.2128C76.9584 19.4127 76.7493 19.7054 76.7493 20.0837C76.7493 20.437 76.8839 20.7047 77.1569 20.8868C77.4263 21.0688 77.8977 21.2115 78.5712 21.3115L80.308 21.572C81.2863 21.7219 82.0059 22.0003 82.4631 22.4072C82.9204 22.8141 83.1508 23.3709 83.1508 24.0811C83.1508 24.8771 82.8105 25.4945 82.1335 25.9335C81.4565 26.369 80.5065 26.5903 79.2836 26.5903C77.9509 26.5903 76.9442 26.3583 76.2566 25.8907C75.5725 25.4267 75.1684 24.7057 75.0514 23.7242H76.5543C76.6571 24.3096 76.9265 24.7307 77.3589 24.9984C77.7949 25.2625 78.4329 25.3946 79.2801 25.3946C80.0386 25.3946 80.6235 25.2804 81.024 25.052C81.4281 24.8235 81.6302 24.5023 81.6302 24.0811C81.6302 23.7349 81.4919 23.4637 81.2119 23.2638C80.9354 23.0675 80.4994 22.9247 79.9146 22.8391L78.4117 22.6142C77.6354 22.4964 77.0222 22.3358 76.5649 22.1288C76.1112 21.9254 75.7816 21.6577 75.576 21.3293C75.3704 21.001 75.2712 20.5977 75.2712 20.1158C75.2712 19.3592 75.6079 18.7702 76.2885 18.3455C76.9655 17.9244 77.9154 17.7102 79.1383 17.7102C79.8898 17.7102 80.5207 17.7959 81.0311 17.96C81.5415 18.1242 81.9492 18.3776 82.2576 18.7167C82.5695 19.0558 82.7928 19.4984 82.9346 20.0409L81.5132 20.255L81.5238 20.2586Z" fill="#BB16A3"></path>
<path d="M87.3405 26.3759V19.1948H83.9554V17.9277H92.2179V19.1948H88.8328V26.3759H87.3405Z" fill="#BB16A3"></path>
<path d="M102.324 22.1536C102.324 23.0352 102.132 23.8133 101.753 24.4772C101.374 25.1446 100.821 25.6621 100.101 26.0333C99.3815 26.4045 98.5308 26.5901 97.5525 26.5901C96.5742 26.5901 95.7837 26.4152 95.0677 26.0619C94.3517 25.7121 93.7952 25.2017 93.3982 24.5307C93.0012 23.8597 92.8063 23.0674 92.8063 22.1501C92.8063 21.2328 92.9977 20.4904 93.377 19.8266C93.7562 19.1591 94.3056 18.6416 95.0287 18.2704C95.7483 17.8992 96.599 17.7136 97.5773 17.7136C98.5556 17.7136 99.3461 17.8885 100.062 18.2419C100.778 18.5916 101.335 19.1056 101.732 19.773C102.129 20.444 102.327 21.2364 102.327 22.1501M100.789 22.1501C100.789 21.1471 100.509 20.3691 99.9486 19.8087C99.3886 19.2484 98.6017 18.97 97.5808 18.97C96.56 18.97 95.7696 19.2484 95.2024 19.8087C94.6353 20.3691 94.3517 21.1507 94.3517 22.1501C94.3517 23.1494 94.6317 23.9347 95.1918 24.4914C95.7518 25.0518 96.5423 25.3302 97.5596 25.3302C98.5769 25.3302 99.3709 25.0518 99.938 24.4914C100.505 23.9311 100.789 23.1494 100.789 22.1501Z" fill="#BB16A3"></path>
<path d="M111.866 26.3759L109.739 19.8479L107.591 26.3759H106.014L103.181 17.9277H104.84L106.861 24.5664L109.023 17.9777H110.526L112.699 24.5913L114.733 17.9277H116.332L113.5 26.3759H111.866Z" fill="#BB16A3"></path>
<path d="M123.946 26.3759L122.981 24.2594H118.551L117.576 26.3759H116.013L119.972 17.9277H121.595L125.555 26.3759H123.946ZM120.762 19.359L119.072 23.0245H122.432L120.762 19.359Z" fill="#BB16A3"></path>
<path d="M133.229 26.3761L131.336 23.0496C131.265 23.0568 131.198 23.0603 131.13 23.0603H128.493V26.3725H127.058V17.9243H131.067C133.314 17.9243 134.438 18.7809 134.438 20.4905C134.438 21.6327 133.888 22.3929 132.793 22.7641L134.909 26.3725H133.229V26.3761ZM130.971 21.8432C131.644 21.8432 132.144 21.7326 132.47 21.5113C132.796 21.29 132.959 20.9474 132.959 20.4834C132.959 20.0194 132.804 19.6696 132.495 19.4591C132.187 19.252 131.687 19.145 130.996 19.145H128.493V21.8432H130.971Z" fill="#BB16A3"></path>
<path d="M135.699 26.3759V25.2659L141.385 19.1948H135.802V17.9277H143.278V19.0413L137.589 25.1124H143.476L143.267 26.3759H135.699Z" fill="#BB16A3"></path>
<path d="M147.73 26.3759V22.9103L144.146 17.9277H145.862L148.506 21.6789L151.14 17.9277H152.809L149.222 22.9103V26.3759H147.73Z" fill="#BB16A3"></path>
<path d="M159.81 20.2586C159.686 19.9266 159.519 19.6625 159.317 19.4662C159.112 19.2699 158.86 19.1272 158.552 19.0379C158.247 18.9523 157.864 18.9094 157.41 18.9094C156.659 18.9094 156.074 19.0094 155.659 19.2128C155.244 19.4127 155.035 19.7054 155.035 20.0837C155.035 20.437 155.17 20.7047 155.443 20.8868C155.712 21.0688 156.184 21.2115 156.857 21.3115L158.594 21.572C159.572 21.7219 160.292 22.0003 160.749 22.4072C161.206 22.8141 161.437 23.3709 161.437 24.0811C161.437 24.8771 161.097 25.4945 160.419 25.9335C159.742 26.369 158.793 26.5903 157.57 26.5903C156.237 26.5903 155.23 26.3583 154.543 25.8907C153.858 25.4267 153.454 24.7057 153.337 23.7242H154.84C154.943 24.3096 155.209 24.7307 155.645 24.9984C156.081 25.2625 156.719 25.3946 157.566 25.3946C158.325 25.3946 158.91 25.2804 159.314 25.052C159.718 24.8235 159.92 24.5023 159.92 24.0811C159.92 23.7349 159.781 23.4637 159.501 23.2638C159.225 23.0675 158.789 22.9247 158.204 22.8391L156.701 22.6142C155.925 22.4964 155.312 22.3358 154.854 22.1288C154.401 21.9254 154.071 21.6577 153.866 21.3293C153.664 21.001 153.561 20.5977 153.561 20.1158C153.561 19.3592 153.897 18.7702 154.578 18.3455C155.255 17.9244 156.205 17.7102 157.428 17.7102C158.179 17.7102 158.81 17.7959 159.321 17.96C159.831 18.1242 160.239 18.3776 160.547 18.7167C160.859 19.0558 161.082 19.4984 161.224 20.0409L159.803 20.255L159.81 20.2586Z" fill="#BB16A3"></path>
<path d="M162.646 26.3759V25.2659L168.331 19.1948H162.748V17.9277H170.224V19.0413L164.535 25.1124H170.422L170.21 26.3759H162.646Z" fill="#BB16A3"></path>
<path d="M172.01 26.3759V17.9277H178.848V19.1948H173.503V21.397H178.589V22.664H173.503V25.1124H179.107L178.894 26.3759H172.01Z" fill="#BB16A3"></path>
<path d="M187.66 26.3759L182.41 20.0014V26.3759H180.964V17.9277H182.35L187.603 24.3058V17.9277H189.049V26.3759H187.66Z" fill="#BB16A3"></path>
<path d="M192.959 17.9277H191.467V26.3759H192.959V17.9277Z" fill="#BB16A3"></path>
<path d="M195.38 26.3759V17.9277H202.221V19.1948H196.872V21.397H201.962V22.664H196.872V25.1124H202.48L202.267 26.3759H195.38Z" fill="#BB16A3"></path>
<path d="M84.7211 36.3518C84.7211 37.237 84.5297 38.0115 84.1504 38.6754C83.7711 39.3428 83.2182 39.8603 82.4986 40.2315C81.7791 40.6027 80.9284 40.7883 79.9501 40.7883C78.9718 40.7883 78.1813 40.6134 77.4653 40.2636C76.7493 39.9138 76.1928 39.3999 75.7958 38.7325C75.3988 38.065 75.2039 37.2691 75.2039 36.3554C75.2039 35.4417 75.3953 34.6957 75.7745 34.0319C76.1538 33.3645 76.7032 32.8469 77.4263 32.4757C78.1459 32.1045 78.9966 31.9189 79.9749 31.9189C80.9532 31.9189 81.7436 32.0938 82.4596 32.4472C83.1757 32.797 83.7322 33.3073 84.1291 33.9783C84.5261 34.6493 84.7246 35.4417 84.7246 36.359M83.1863 36.359C83.1863 35.356 82.9063 34.5744 82.3462 34.0176C81.7862 33.4572 80.9993 33.1753 79.9784 33.1753C78.9576 33.1753 78.1671 33.4537 77.6 34.0176C77.0329 34.578 76.7493 35.356 76.7493 36.359C76.7493 37.3619 77.0293 38.14 77.5894 38.7003C78.1494 39.2607 78.9399 39.5391 79.9572 39.5391C80.9745 39.5391 81.7684 39.2607 82.3356 38.7003C82.9027 38.14 83.1863 37.3583 83.1863 36.359Z" fill="#BB16A3"></path>
<path d="M86.5891 40.5778V32.1296H90.6087C91.7288 32.1296 92.5724 32.3545 93.1395 32.8078C93.7067 33.2611 93.9902 33.9356 93.9902 34.8244C93.9902 35.7131 93.6996 36.4233 93.1218 36.873C92.5405 37.3228 91.6579 37.5476 90.4669 37.5476H88.0566V40.5778H86.5891ZM90.4775 36.3163C91.1581 36.3163 91.665 36.1949 91.9946 35.9486C92.3243 35.7024 92.4873 35.3205 92.4873 34.7994C92.4873 34.2783 92.3278 33.9285 92.0053 33.7001C91.6827 33.4716 91.1829 33.3574 90.4988 33.3574H88.0566V36.3163H90.4775Z" fill="#BB16A3"></path>
<path d="M97.2583 32.1296H95.766V40.5778H97.2583V32.1296Z" fill="#BB16A3"></path>
<path d="M99.6792 40.5778V32.1296H106.52V33.3931H101.171V35.5953H106.262V36.8623H101.171V39.3108H106.779L106.566 40.5778H99.6792Z" fill="#BB16A3"></path>
<path d="M115.169 40.5778L111.795 36.1521L110.125 37.4762V40.5778H108.636V32.1296H110.125V35.9736L114.733 32.1296H116.58L112.865 35.2741L116.931 40.5778H115.169Z" fill="#BB16A3"></path>
<path d="M119.94 32.1296H118.448V40.5778H119.94V32.1296Z" fill="#BB16A3"></path>
<path d="M125.86 40.5778V32.1296H129.503C131.063 32.1296 132.254 32.4937 133.084 33.2182C133.909 33.9428 134.324 34.9885 134.324 36.3519C134.324 37.7154 133.885 38.754 133.009 39.4821C132.13 40.2102 130.882 40.5778 129.259 40.5778H125.863H125.86ZM129.301 39.3108C130.453 39.3108 131.322 39.0609 131.907 38.5577C132.492 38.058 132.782 37.3228 132.782 36.3519C132.782 34.3818 131.694 33.3931 129.514 33.3931H127.352V39.3108H129.301Z" fill="#BB16A3"></path>
<path d="M145.394 36.3518C145.394 37.237 145.203 38.0115 144.823 38.6754C144.44 39.3428 143.891 39.8603 143.171 40.2315C142.452 40.6027 141.601 40.7883 140.623 40.7883C139.645 40.7883 138.854 40.6134 138.138 40.2636C137.422 39.9138 136.866 39.3999 136.469 38.7325C136.072 38.065 135.877 37.2691 135.877 36.3554C135.877 35.4417 136.068 34.6957 136.447 34.0319C136.827 33.3645 137.376 32.8469 138.099 32.4757C138.819 32.1045 139.669 31.9189 140.648 31.9189C141.626 31.9189 142.416 32.0938 143.132 32.4472C143.849 32.797 144.405 33.3073 144.802 33.9783C145.199 34.6493 145.397 35.4417 145.397 36.359M143.859 36.359C143.859 35.356 143.579 34.5744 143.019 34.0176C142.459 33.4572 141.672 33.1753 140.651 33.1753C139.63 33.1753 138.84 33.4537 138.273 34.0176C137.706 34.578 137.422 35.356 137.422 36.359C137.422 37.3619 137.702 38.14 138.262 38.7003C138.822 39.2607 139.613 39.5391 140.63 39.5391C141.647 39.5391 142.441 39.2607 143.008 38.7003C143.576 38.14 143.859 37.3583 143.859 36.359Z" fill="#BB16A3"></path>
<path d="M155.875 40.5778V34.2569L152.866 40.5778H151.668L148.648 34.3068V40.5778H147.262V32.1296H149.048L152.302 38.9681L155.556 32.1296H157.286V40.5778H155.875Z" fill="#BB16A3"></path>
<path d="M168.671 36.3518C168.671 37.237 168.48 38.0115 168.101 38.6754C167.718 39.3428 167.168 39.8603 166.449 40.2315C165.729 40.6027 164.879 40.7883 163.9 40.7883C162.922 40.7883 162.132 40.6134 161.416 40.2636C160.699 39.9138 160.143 39.3999 159.746 38.7325C159.349 38.065 159.154 37.2691 159.154 36.3554C159.154 35.4417 159.342 34.6957 159.725 34.0319C160.104 33.3645 160.653 32.8469 161.377 32.4757C162.096 32.1045 162.947 31.9189 163.925 31.9189C164.903 31.9189 165.694 32.0938 166.41 32.4472C167.126 32.797 167.682 33.3073 168.079 33.9783C168.476 34.6493 168.675 35.4417 168.675 36.359M167.136 36.359C167.136 35.356 166.856 34.5744 166.296 34.0176C165.736 33.4572 164.949 33.1753 163.929 33.1753C162.908 33.1753 162.117 33.4537 161.55 34.0176C160.983 34.578 160.7 35.356 160.7 36.359C160.7 37.3619 160.98 38.14 161.54 38.7003C162.1 39.2607 162.89 39.5391 163.907 39.5391C164.925 39.5391 165.719 39.2607 166.286 38.7003C166.853 38.14 167.136 37.3583 167.136 36.359Z" fill="#BB16A3"></path>
<path d="M178.213 40.5778L176.087 34.0463L173.935 40.5778H172.361L169.529 32.1296H171.184L173.208 38.7683L175.371 32.176H176.873L179.046 38.7897L181.081 32.1296H182.68L179.847 40.5778H178.213Z" fill="#BB16A3"></path>
<path d="M184.229 40.5778V32.1296H191.07V33.3931H185.721V35.5953H190.811V36.8623H185.721V39.3108H191.328L191.116 40.5778H184.229Z" fill="#BB16A3"></path>
<path d="M198.177 32.1296H199.669V37.4548C199.669 38.5505 199.364 39.3822 198.758 39.9461C198.152 40.51 197.258 40.792 196.085 40.792C194.912 40.792 194.093 40.5493 193.469 40.0603C192.845 39.5713 192.484 38.8468 192.381 37.8831H193.898C193.994 38.4577 194.214 38.8789 194.568 39.143C194.919 39.4071 195.419 39.5392 196.06 39.5392C196.791 39.5392 197.322 39.3679 197.666 39.0252C198.006 38.6826 198.177 38.1472 198.177 37.4227V32.1332V32.1296Z" fill="#BB16A3"></path>
<path d="M50.9694 25.4516C50.9694 11.4177 39.6303 0 25.6929 0C11.7555 0 0.416382 11.4177 0.416382 25.4516C0.416382 34.9527 5.61631 43.2474 13.2939 47.6197C11.0289 49.4685 8.14715 50.5785 5.01018 50.5785V64.4375C13.2904 64.4375 20.7057 60.6542 25.6504 54.7187C30.5951 60.6542 38.0104 64.4375 46.2906 64.4375V50.5785C43.1713 50.5785 40.3002 49.4792 38.0423 47.6446C45.7482 43.2796 50.9694 34.9706 50.9694 25.4516ZM25.6929 13.859C32.0413 13.859 37.2093 19.0593 37.2093 25.4552C37.2093 31.8511 32.0448 37.0514 25.6929 37.0514C19.341 37.0514 14.1765 31.8511 14.1765 25.4552C14.1765 19.0593 19.341 13.859 25.6929 13.859Z" fill="#BB16A3"></path>
<path d="M75.2216 63.2489V56.1356H77.1286V56.8387C77.5929 56.264 78.2593 55.9785 79.1206 55.9785C79.592 55.9785 80.0139 56.0856 80.3896 56.2997C80.7618 56.5139 81.0595 56.8244 81.2722 57.2349C81.4884 57.6417 81.5983 58.12 81.5983 58.659C81.5983 59.1979 81.492 59.6833 81.2793 60.1116C81.0666 60.5399 80.7582 60.8754 80.3541 61.1217C79.9536 61.3644 79.4786 61.4893 78.9363 61.4893C78.1707 61.4893 77.5823 61.243 77.1675 60.7576V63.2489H75.2216ZM77.1569 58.816C77.1569 59.1836 77.2668 59.4834 77.4901 59.7047C77.7134 59.9296 78.0147 60.0402 78.394 60.0402C78.7945 60.0402 79.0993 59.926 79.312 59.7047C79.5247 59.4799 79.631 59.1515 79.631 58.7161C79.631 58.2806 79.5247 57.9808 79.3156 57.756C79.1064 57.5311 78.8087 57.4205 78.4223 57.4205C78.036 57.4205 77.7382 57.5382 77.4901 57.7774C77.2668 57.9951 77.1569 58.2735 77.1569 58.609V58.816Z" fill="#BB16A3"></path>
<path d="M89.0419 58.7162C89.0419 59.5728 88.7548 60.2509 88.177 60.7435C87.5993 61.236 86.8124 61.4859 85.8092 61.4859C84.8061 61.4859 84.0298 61.2467 83.4804 60.7685C82.931 60.2902 82.6545 59.6192 82.6545 58.7555C82.6545 57.8917 82.9417 57.2136 83.5194 56.7175C84.0972 56.2249 84.8841 55.9751 85.8872 55.9751C86.8903 55.9751 87.6666 56.2142 88.216 56.6925C88.7654 57.1708 89.0419 57.8453 89.0419 58.7162ZM87.0782 58.7269C87.0782 58.3058 86.9754 57.981 86.7663 57.7561C86.5571 57.5313 86.2523 57.4206 85.8518 57.4206C85.4512 57.4206 85.157 57.5313 84.9444 57.7561C84.7317 57.981 84.6253 58.3058 84.6253 58.7341C84.6253 59.1624 84.7281 59.48 84.9408 59.7049C85.1535 59.9297 85.4548 60.0404 85.8553 60.0404C86.2559 60.0404 86.5501 59.9261 86.7627 59.7049C86.9754 59.48 87.0817 59.1552 87.0817 58.7269" fill="#BB16A3"></path>
<path d="M92.2958 54.2654H90.3499V61.3287H92.2958V54.2654Z" fill="#BB16A3"></path>
<path d="M97.4604 57.7167C97.4002 57.5311 97.2867 57.3955 97.1166 57.3098C96.9464 57.2242 96.7125 57.1813 96.4112 57.1813C96.1099 57.1813 95.8866 57.217 95.7236 57.2848C95.5605 57.3562 95.479 57.4561 95.479 57.5882C95.479 57.706 95.5428 57.7988 95.6704 57.8666C95.798 57.9308 96.0142 57.9844 96.3226 58.0236L97.0315 58.1236C97.6483 58.2092 98.1197 58.3163 98.4494 58.4484C98.779 58.5804 99.0129 58.7518 99.1512 58.9588C99.2894 59.1658 99.3568 59.4406 99.3568 59.7761C99.3568 60.3365 99.1193 60.7612 98.6408 61.0539C98.1622 61.343 97.4604 61.4893 96.5388 61.4893C95.6172 61.4893 94.8445 61.3358 94.3483 61.0324C93.852 60.7291 93.5684 60.2758 93.5046 59.669H95.3195C95.4364 60.0509 95.8334 60.2437 96.5069 60.2437C96.8224 60.2437 97.0599 60.2115 97.2229 60.1402C97.386 60.0723 97.4675 59.9688 97.4675 59.8296C97.4675 59.7119 97.4037 59.6226 97.2796 59.5619C97.1556 59.5013 96.9358 59.4513 96.6203 59.412L95.9717 59.3228C95.3939 59.2443 94.9402 59.1336 94.5999 58.9909C94.2632 58.8481 94.0186 58.6697 93.8697 58.4448C93.7173 58.2235 93.6429 57.9487 93.6429 57.6168C93.6429 57.0957 93.8839 56.6923 94.3695 56.4068C94.8516 56.1213 95.5322 55.9785 96.4006 55.9785C97.269 55.9785 97.8964 56.1034 98.3572 56.3533C98.8144 56.6031 99.1122 57.0029 99.2433 57.5489L97.4533 57.7167H97.4604Z" fill="#BB16A3"></path>
<path d="M104.89 61.3287L103.259 58.866L102.472 59.4585V61.3287H100.53V54.2654H102.472V57.6882L104.447 56.1356H106.814L104.603 57.856L107.009 61.3287H104.89Z" fill="#BB16A3"></path>
<path d="M111.685 61.3288V60.6863C111.408 60.9647 111.111 61.1646 110.784 61.2895C110.462 61.4144 110.086 61.4787 109.661 61.4787C108.966 61.4787 108.431 61.343 108.059 61.0682C107.687 60.7934 107.499 60.4008 107.499 59.8868C107.499 59.3265 107.74 58.9053 108.222 58.6198C108.704 58.3342 109.455 58.1808 110.476 58.1558L111.617 58.1272V57.8988C111.617 57.6882 111.536 57.5241 111.369 57.4098C111.206 57.2956 110.972 57.2385 110.671 57.2385C110.37 57.2385 110.122 57.2813 109.93 57.367C109.735 57.4527 109.618 57.5704 109.572 57.7239L107.835 57.5954C107.959 57.0494 108.261 56.6425 108.732 56.3784C109.207 56.1142 109.866 55.9822 110.71 55.9822C112.511 55.9822 113.411 56.6853 113.411 58.088V61.3323H111.681L111.685 61.3288ZM111.617 59.123L110.597 59.1552C110.139 59.1694 109.81 59.2194 109.615 59.3086C109.42 59.3979 109.321 59.5442 109.321 59.7476C109.321 60.0653 109.622 60.2223 110.224 60.2223C110.448 60.2223 110.65 60.1973 110.838 60.1438C111.022 60.0903 111.178 60.0153 111.295 59.9154C111.511 59.7298 111.617 59.5192 111.617 59.2836V59.1266V59.123Z" fill="#BB16A3"></path>
<path d="M121.057 58.7162C121.057 59.5728 120.77 60.2509 120.192 60.7435C119.614 61.236 118.827 61.4859 117.824 61.4859C116.821 61.4859 116.045 61.2467 115.495 60.7685C114.946 60.2902 114.669 59.6192 114.669 58.7555C114.669 57.8917 114.956 57.2136 115.534 56.7175C116.112 56.2249 116.899 55.9751 117.902 55.9751C118.905 55.9751 119.681 56.2142 120.231 56.6925C120.78 57.1708 121.057 57.8453 121.057 58.7162ZM119.093 58.7269C119.093 58.3058 118.99 57.981 118.778 57.7561C118.568 57.5313 118.264 57.4206 117.863 57.4206C117.462 57.4206 117.168 57.5313 116.956 57.7561C116.743 57.981 116.637 58.3058 116.637 58.7341C116.637 59.1624 116.739 59.48 116.952 59.7049C117.165 59.9297 117.466 60.0404 117.867 60.0404C118.267 60.0404 118.561 59.9261 118.774 59.7049C118.987 59.4836 119.093 59.1552 119.093 58.7269Z" fill="#BB16A3"></path>
<path d="M122.365 63.2489V56.1356H124.272V56.8387C124.736 56.264 125.402 55.9785 126.264 55.9785C126.735 55.9785 127.157 56.0856 127.533 56.2997C127.905 56.5139 128.199 56.8244 128.415 57.2349C128.631 57.6417 128.738 58.12 128.738 58.659C128.738 59.1979 128.631 59.6833 128.419 60.1116C128.206 60.5399 127.898 60.8754 127.494 61.1217C127.093 61.3644 126.618 61.4893 126.076 61.4893C125.31 61.4893 124.722 61.243 124.307 60.7576V63.2489H122.361H122.365ZM124.3 58.816C124.3 59.1836 124.41 59.4834 124.633 59.7047C124.856 59.9296 125.158 60.0402 125.537 60.0402C125.938 60.0402 126.242 59.926 126.455 59.7047C126.668 59.4799 126.774 59.1515 126.774 58.7161C126.774 58.2806 126.668 57.9808 126.459 57.756C126.25 57.5311 125.952 57.4205 125.565 57.4205C125.179 57.4205 124.881 57.5382 124.633 57.7774C124.41 57.9951 124.3 58.2735 124.3 58.609V58.816Z" fill="#BB16A3"></path>
<path d="M130.035 54.2083H131.999V55.4931H130.035V54.2083ZM130.046 56.1356H131.992V61.3287H130.046V56.1356Z" fill="#BB16A3"></path>
<path d="M135.136 59.1944C135.171 59.5156 135.295 59.7619 135.515 59.9297C135.735 60.0974 136.036 60.1831 136.423 60.1831C137.043 60.1831 137.426 60.0082 137.56 59.6584H139.358C139.088 60.8791 138.092 61.4894 136.373 61.4894C135.395 61.4894 134.64 61.2538 134.104 60.7863C133.566 60.3187 133.3 59.6548 133.3 58.7982C133.3 58.2522 133.424 57.7668 133.672 57.342C133.92 56.9173 134.282 56.5818 134.753 56.3427C135.225 56.1 135.781 55.9822 136.423 55.9822C137.373 55.9822 138.11 56.2177 138.631 56.6889C139.155 57.16 139.418 57.8274 139.418 58.6912V59.1944H135.136ZM137.614 58.1558C137.578 57.5633 137.174 57.2671 136.394 57.2671C136.075 57.2671 135.802 57.3492 135.575 57.5133C135.349 57.6775 135.217 57.8952 135.178 58.1558H137.617H137.614Z" fill="#BB16A3"></path>
<path d="M145.086 61.3287L143.455 58.866L142.668 59.4585V61.3287H140.726V54.2654H142.668V57.6882L144.642 56.1356H147.01L144.802 57.856L147.209 61.3287H145.086Z" fill="#BB16A3"></path>
<path d="M151.884 61.3288V60.6863C151.608 60.9647 151.31 61.1646 150.984 61.2895C150.661 61.4144 150.285 61.4787 149.86 61.4787C149.165 61.4787 148.63 61.343 148.258 61.0682C147.886 60.7934 147.698 60.4008 147.698 59.8868C147.698 59.3265 147.939 58.9053 148.421 58.6198C148.903 58.3342 149.654 58.1808 150.675 58.1558L151.817 58.1272V57.8988C151.817 57.6882 151.735 57.5241 151.569 57.4098C151.406 57.2956 151.172 57.2385 150.87 57.2385C150.569 57.2385 150.321 57.2813 150.129 57.367C149.935 57.4527 149.818 57.5704 149.771 57.7239L148.035 57.5954C148.159 57.0494 148.46 56.6425 148.931 56.3784C149.406 56.1142 150.066 55.9822 150.909 55.9822C152.71 55.9822 153.61 56.6853 153.61 58.088V61.3323H151.88L151.884 61.3288ZM151.817 59.123L150.796 59.1552C150.339 59.1694 150.009 59.2194 149.814 59.3086C149.619 59.3979 149.52 59.5442 149.52 59.7476C149.52 60.0653 149.821 60.2223 150.424 60.2223C150.647 60.2223 150.849 60.1973 151.037 60.1438C151.221 60.0903 151.377 60.0153 151.494 59.9154C151.71 59.7298 151.817 59.5192 151.817 59.2836V59.1266V59.123Z" fill="#BB16A3"></path>
<path d="M156.921 59.3728H155.085V61.3323H156.921V59.3728Z" fill="#BB16A3"></path>
<path d="M159.742 59.1944C159.774 59.5156 159.902 59.7619 160.122 59.9297C160.342 60.0974 160.643 60.1831 161.029 60.1831C161.649 60.1831 162.032 60.0082 162.167 59.6584H163.964C163.695 60.8791 162.699 61.4894 160.98 61.4894C160.001 61.4894 159.246 61.2538 158.711 60.7863C158.172 60.3187 157.906 59.6548 157.906 58.7982C157.906 58.2522 158.03 57.7668 158.279 57.342C158.527 56.9173 158.888 56.5818 159.36 56.3427C159.831 56.1 160.388 55.9822 161.029 55.9822C161.979 55.9822 162.716 56.2177 163.237 56.6889C163.762 57.16 164.024 57.8274 164.024 58.6912V59.1944H159.742ZM162.22 58.1558C162.188 57.5633 161.781 57.2671 161.001 57.2671C160.678 57.2671 160.405 57.3492 160.182 57.5133C159.955 57.6775 159.824 57.8952 159.785 58.1558H162.224H162.22Z" fill="#BB16A3"></path>
<path d="M169.292 61.3288V60.6042C168.742 61.1931 168.079 61.4858 167.307 61.4858C166.672 61.4858 166.176 61.3109 165.818 60.9611C165.46 60.6114 165.283 60.126 165.283 59.5049V56.1321H167.229V59.1373C167.229 59.4335 167.3 59.6513 167.438 59.7905C167.576 59.9297 167.785 59.9975 168.065 59.9975C168.374 59.9975 168.657 59.8833 168.919 59.6513C169.022 59.5585 169.107 59.4478 169.164 59.3193C169.224 59.1908 169.253 59.0588 169.253 58.9303V56.1321H171.199V61.3252H169.292V61.3288Z" fill="#BB16A3"></path>
</svg>