<svg width="204" height="64" viewBox="0 0 204 64" fill="none" xmlns="http://www.w3.org/2000/svg">
<path d="M76.8082 22.2V13.8092H80.7849C81.893 13.8092 82.7276 14.0325 83.2887 14.4827C83.8498 14.9329 84.1303 15.6029 84.1303 16.4856C84.1303 17.3683 83.8428 18.0737 83.2712 18.5204C82.696 18.967 81.8229 19.1904 80.6446 19.1904H78.26V22.2H76.8082ZM80.6551 17.9674C81.3284 17.9674 81.8299 17.8468 82.156 17.6022C82.4821 17.3576 82.6434 16.9783 82.6434 16.4608C82.6434 15.9432 82.4856 15.5958 82.1665 15.3689C81.8474 15.1421 81.353 15.0286 80.6761 15.0286H78.26V17.9674H80.6551Z" fill="#BB16A3"></path>
<path d="M94.9907 18.0063C94.9907 18.8854 94.8013 19.6547 94.4261 20.3141C94.0474 20.977 93.5038 21.491 92.7919 21.8596C92.0801 22.2283 91.2384 22.4126 90.2706 22.4126C89.3027 22.4126 88.5207 22.2389 87.8123 21.8915C87.1039 21.5441 86.5534 21.0337 86.1606 20.3708C85.7679 19.7079 85.5715 18.9174 85.5715 18.0099C85.5715 17.1024 85.7608 16.3615 86.1361 15.7021C86.5113 15.0392 87.0548 14.5252 87.7702 14.1565C88.4821 13.7879 89.3237 13.6035 90.2916 13.6035C91.2595 13.6035 92.0415 13.7772 92.7499 14.1282C93.4582 14.4756 94.0088 14.9825 94.4015 15.6489C94.7943 16.3154 94.9907 17.1024 94.9907 18.0134M93.4687 18.0134C93.4687 17.0173 93.1917 16.2409 92.6376 15.6879C92.0836 15.1314 91.3051 14.8549 90.2951 14.8549C89.2852 14.8549 88.5031 15.1314 87.9421 15.6879C87.381 16.2445 87.1004 17.0173 87.1004 18.0134C87.1004 19.0095 87.3775 19.7823 87.9315 20.3389C88.4856 20.8954 89.2676 21.1719 90.2741 21.1719C91.2805 21.1719 92.066 20.8954 92.6271 20.3389C93.1882 19.7823 93.4687 19.006 93.4687 18.0134Z" fill="#BB16A3"></path>
<path d="M96.8421 22.2V13.8092H98.3185V20.9451H103.582L103.375 22.2H96.8421Z" fill="#BB16A3"></path>
<path d="M110.803 16.124C110.68 15.7943 110.515 15.532 110.315 15.337C110.112 15.142 109.863 15.0002 109.558 14.9152C109.253 14.8301 108.877 14.784 108.428 14.784C107.685 14.784 107.106 14.8833 106.696 15.0853C106.286 15.2874 106.079 15.5745 106.079 15.9503C106.079 16.3048 106.212 16.5706 106.482 16.7514C106.749 16.9322 107.215 17.0705 107.881 17.1733L109.6 17.4321C110.568 17.581 111.279 17.8575 111.732 18.2616C112.184 18.6657 112.412 19.2187 112.412 19.9241C112.412 20.7147 112.076 21.3279 111.406 21.764C110.736 22.2 109.796 22.4162 108.586 22.4162C107.268 22.4162 106.272 22.1858 105.591 21.725C104.915 21.2606 104.515 20.5445 104.399 19.5732H105.886C105.988 20.1546 106.254 20.5729 106.682 20.8352C107.113 21.0975 107.745 21.2287 108.583 21.2287C109.333 21.2287 109.912 21.1152 110.308 20.8884C110.708 20.6615 110.908 20.3389 110.908 19.9241C110.908 19.5803 110.771 19.3109 110.494 19.1124C110.22 18.9174 109.793 18.7756 109.21 18.6905L107.724 18.4672C106.956 18.3502 106.349 18.1871 105.897 17.9851C105.448 17.783 105.122 17.5171 104.918 17.191C104.715 16.8649 104.617 16.4643 104.617 15.9857C104.617 15.2342 104.95 14.6458 105.623 14.2275C106.293 13.8092 107.233 13.6 108.442 13.6C109.186 13.6 109.81 13.6815 110.315 13.8446C110.82 14.0077 111.223 14.2594 111.528 14.5961C111.837 14.9329 112.058 15.3725 112.198 15.9113L110.792 16.124H110.803Z" fill="#BB16A3"></path>
<path d="M120.801 22.2L117.466 17.8043L115.814 19.123V22.2H114.338V13.8092H115.814V17.6306L120.369 13.8092H122.196L118.521 16.9358L122.543 22.2H120.801Z" fill="#BB16A3"></path>
<path d="M125.521 13.8092H124.044V22.2H125.521V13.8092Z" fill="#BB16A3"></path>
<path d="M127.916 22.2V13.8092H134.681V15.0676H129.392V17.2513H134.428V18.5097H129.392V20.9451H134.937L134.73 22.2H127.916Z" fill="#BB16A3"></path>
<path d="M82.6326 30.2256C82.5098 29.8959 82.345 29.6336 82.1451 29.4387C81.9417 29.2437 81.6927 29.1019 81.3877 29.0133C81.0861 28.9282 80.7073 28.8856 80.2585 28.8856C79.515 28.8856 78.9364 28.9849 78.5261 29.187C78.1158 29.3855 77.9089 29.6762 77.9089 30.0519C77.9089 30.4029 78.0422 30.6687 78.3122 30.8495C78.5787 31.0303 79.0451 31.1721 79.7114 31.2714L81.4297 31.5302C82.3976 31.679 83.1095 31.9555 83.5619 32.3597C84.0142 32.7638 84.2422 33.3168 84.2422 34.0222C84.2422 34.8128 83.9055 35.426 83.2357 35.862C82.5659 36.2945 81.6261 36.5143 80.4163 36.5143C79.0977 36.5143 78.1018 36.2839 77.4215 35.8195C76.7447 35.3587 76.3449 34.6426 76.2292 33.6677H77.7161C77.8178 34.2491 78.0843 34.6674 78.5121 34.9333C78.9434 35.1956 79.5747 35.3268 80.4128 35.3268C81.1632 35.3268 81.7418 35.2133 82.1381 34.9865C82.5379 34.7596 82.7378 34.4405 82.7378 34.0222C82.7378 33.6784 82.601 33.409 82.324 33.2104C82.0504 33.0155 81.6191 32.8737 81.0405 32.7886L79.5536 32.5653C78.7856 32.4483 78.179 32.2888 77.7266 32.0832C77.2777 31.8811 76.9516 31.6152 76.7482 31.2891C76.5448 30.963 76.4466 30.5624 76.4466 30.0838C76.4466 29.3323 76.7798 28.7474 77.4531 28.3255C78.1228 27.9072 79.0627 27.6945 80.2725 27.6945C81.0159 27.6945 81.6401 27.7796 82.1451 27.9427C82.6501 28.1058 83.0534 28.3574 83.3585 28.6942C83.6671 29.031 83.888 29.4706 84.0283 30.0094L82.622 30.2221L82.6326 30.2256Z" fill="#BB16A3"></path>
<path d="M88.3874 36.3016V29.1692H85.0384V27.9108H93.2127V29.1692H89.8637V36.3016H88.3874Z" fill="#BB16A3"></path>
<path d="M103.21 32.1079C103.21 32.9835 103.021 33.7563 102.646 34.4157C102.271 35.0786 101.724 35.5926 101.012 35.9613C100.3 36.3299 99.4581 36.5143 98.4903 36.5143C97.5224 36.5143 96.7404 36.3406 96.032 35.9896C95.3236 35.6422 94.7731 35.1353 94.3803 34.4689C93.9876 33.8024 93.7947 33.0154 93.7947 32.1044C93.7947 31.1934 93.984 30.456 94.3593 29.7967C94.7345 29.1338 95.2781 28.6197 95.9934 28.2511C96.7053 27.8824 97.5469 27.6981 98.5148 27.6981C99.4827 27.6981 100.265 27.8718 100.973 28.2227C101.681 28.5701 102.232 29.0806 102.625 29.7435C103.018 30.4099 103.214 31.1969 103.214 32.1044M101.692 32.1044C101.692 31.1083 101.415 30.3355 100.861 29.7789C100.307 29.2224 99.5283 28.9459 98.5183 28.9459C97.5084 28.9459 96.7263 29.2224 96.1653 29.7789C95.6042 30.3355 95.3236 31.1118 95.3236 32.1044C95.3236 33.097 95.6007 33.8769 96.1547 34.4299C96.7088 34.9864 97.4908 35.2629 98.4973 35.2629C99.5037 35.2629 100.289 34.9864 100.85 34.4299C101.411 33.8733 101.692 33.097 101.692 32.1044Z" fill="#BB16A3"></path>
<path d="M112.651 36.3016L110.547 29.8179L108.422 36.3016H106.861L104.059 27.9108H105.7L107.699 34.5043L109.838 27.9604H111.325L113.475 34.5291L115.488 27.9108H117.069L114.267 36.3016H112.651Z" fill="#BB16A3"></path>
<path d="M124.602 36.3016L123.648 34.1995H119.265L118.3 36.3016H116.754L120.671 27.9108H122.277L126.194 36.3016H124.602ZM121.453 29.3323L119.78 32.9729H123.105L121.453 29.3323Z" fill="#BB16A3"></path>
<path d="M133.786 36.3016L131.914 32.9978C131.843 33.0049 131.777 33.0084 131.71 33.0084H129.101V36.2981H127.681V27.9073H131.647C133.87 27.9073 134.982 28.758 134.982 30.4561C134.982 31.5904 134.438 32.3455 133.355 32.7142L135.448 36.2981H133.786V36.3016ZM131.552 31.7996C132.219 31.7996 132.713 31.6897 133.036 31.4699C133.358 31.2501 133.52 30.9098 133.52 30.449C133.52 29.9881 133.365 29.6407 133.06 29.4316C132.755 29.226 132.261 29.1196 131.577 29.1196H129.101V31.7996H131.552Z" fill="#BB16A3"></path>
<path d="M136.23 36.3016V35.1991L141.855 29.1692H136.332V27.9108H143.728V29.0168L138.099 35.0467H143.924L143.717 36.3016H136.23Z" fill="#BB16A3"></path>
<path d="M148.132 36.3016V32.8595L144.587 27.9108H146.284L148.9 31.6365L151.506 27.9108H153.157L149.609 32.8595V36.3016H148.132Z" fill="#BB16A3"></path>
<path d="M160.084 30.2256C159.961 29.8959 159.796 29.6336 159.596 29.4387C159.393 29.2437 159.144 29.1019 158.839 29.0133C158.537 28.9282 158.158 28.8856 157.709 28.8856C156.966 28.8856 156.387 28.9849 155.977 29.187C155.567 29.3855 155.36 29.6762 155.36 30.0519C155.36 30.4029 155.493 30.6687 155.763 30.8495C156.03 31.0303 156.496 31.1721 157.162 31.2714L158.881 31.5302C159.849 31.679 160.56 31.9555 161.013 32.3597C161.465 32.7638 161.693 33.3168 161.693 34.0222C161.693 34.8128 161.356 35.426 160.687 35.862C160.017 36.2945 159.077 36.5143 157.867 36.5143C156.549 36.5143 155.553 36.2839 154.872 35.8195C154.196 35.3587 153.796 34.6426 153.68 33.6677H155.167C155.269 34.2491 155.532 34.6674 155.963 34.9333C156.394 35.1956 157.026 35.3268 157.864 35.3268C158.614 35.3268 159.193 35.2133 159.593 34.9865C159.992 34.7596 160.192 34.4405 160.192 34.0222C160.192 33.6784 160.055 33.409 159.778 33.2104C159.505 33.0155 159.074 32.8737 158.495 32.7886L157.008 32.5653C156.24 32.4483 155.633 32.2888 155.181 32.0832C154.732 31.8811 154.406 31.6152 154.203 31.2891C154.003 30.963 153.901 30.5624 153.901 30.0838C153.901 29.3323 154.234 28.7474 154.908 28.3255C155.577 27.9072 156.517 27.6945 157.727 27.6945C158.47 27.6945 159.095 27.7796 159.6 27.9427C160.105 28.1058 160.508 28.3574 160.813 28.6942C161.122 29.031 161.342 29.4706 161.483 30.0094L160.077 30.2221L160.084 30.2256Z" fill="#BB16A3"></path>
<path d="M162.889 36.3016V35.1991L168.514 29.1692H162.991V27.9108H170.386V29.0168L164.758 35.0467H170.583L170.372 36.3016H162.889Z" fill="#BB16A3"></path>
<path d="M172.154 36.3016V27.9108H178.918V29.1692H173.63V31.3564H178.662V32.6149H173.63V35.0467H179.174L178.964 36.3016H172.154Z" fill="#BB16A3"></path>
<path d="M187.636 36.3016L182.443 29.9704V36.3016H181.012V27.9108H182.383L187.58 34.2455V27.9108H189.011V36.3016H187.636Z" fill="#BB16A3"></path>
<path d="M192.879 27.9108H191.403V36.3016H192.879V27.9108Z" fill="#BB16A3"></path>
<path d="M195.274 36.3016V27.9108H202.042V29.1692H196.75V31.3564H201.786V32.6149H196.75V35.0467H202.298L202.088 36.3016H195.274Z" fill="#BB16A3"></path>
<path d="M85.7959 46.2096C85.7959 47.0888 85.6065 47.858 85.2313 48.5174C84.856 49.1803 84.309 49.6943 83.5971 50.063C82.8852 50.4316 82.0436 50.616 81.0757 50.616C80.1079 50.616 79.3258 50.4423 78.6175 50.0949C77.9091 49.7475 77.3585 49.237 76.9658 48.5741C76.573 47.9112 76.3802 47.1207 76.3802 46.2132C76.3802 45.3057 76.5695 44.5648 76.9447 43.9054C77.32 43.2425 77.8635 42.7285 78.5789 42.3598C79.2908 41.9912 80.1324 41.8068 81.1003 41.8068C82.0681 41.8068 82.8502 41.9805 83.5585 42.3315C84.2669 42.6789 84.8175 43.1858 85.2102 43.8523C85.603 44.5187 85.7994 45.3057 85.7994 46.2167M84.2774 46.2167C84.2774 45.2206 84.0004 44.4443 83.4463 43.8913C82.8922 43.3347 82.1137 43.0546 81.1038 43.0546C80.0938 43.0546 79.3118 43.3312 78.7507 43.8913C78.1897 44.4478 77.9091 45.2206 77.9091 46.2167C77.9091 47.2128 78.1861 47.9856 78.7402 48.5422C79.2943 49.0987 80.0763 49.3752 81.0827 49.3752C82.0892 49.3752 82.8747 49.0987 83.4358 48.5422C83.9969 47.9856 84.2774 47.2093 84.2774 46.2167Z" fill="#BB16A3"></path>
<path d="M87.6438 50.4069V42.016H91.6205C92.7286 42.016 93.5632 42.2394 94.1243 42.6896C94.6854 43.1398 94.9659 43.8098 94.9659 44.6924C94.9659 45.5751 94.6784 46.2806 94.1068 46.7272C93.5317 47.1739 92.6585 47.3972 91.4802 47.3972H89.0956V50.4069H87.6438ZM91.4907 46.1742C92.164 46.1742 92.6655 46.0537 92.9916 45.8091C93.3178 45.5645 93.4791 45.1852 93.4791 44.6676C93.4791 44.1501 93.3213 43.8027 93.0022 43.5758C92.683 43.3489 92.1886 43.2355 91.5118 43.2355H89.0956V46.1742H91.4907Z" fill="#BB16A3"></path>
<path d="M98.1994 42.016H96.723V50.4069H98.1994V42.016Z" fill="#BB16A3"></path>
<path d="M100.595 50.4069V42.016H107.363V43.2709H102.071V45.4581H107.107V46.7166H102.071V49.1484H107.619L107.408 50.4069H100.595Z" fill="#BB16A3"></path>
<path d="M115.919 50.4069L112.58 46.0111L110.929 47.3263V50.4069H109.456V42.016H110.929V45.8339L115.488 42.016H117.315L113.64 45.1391L117.662 50.4069H115.919Z" fill="#BB16A3"></path>
<path d="M120.639 42.016H119.163V50.4069H120.639V42.016Z" fill="#BB16A3"></path>
<path d="M126.495 50.4069V42.016H130.1C131.643 42.016 132.822 42.3776 133.642 43.0972C134.459 43.8168 134.87 44.8555 134.87 46.2097C134.87 47.5638 134.435 48.5954 133.569 49.3186C132.699 50.0417 131.464 50.4069 129.858 50.4069H126.499H126.495ZM129.9 49.1484C131.04 49.1484 131.899 48.9003 132.478 48.4004C133.057 47.9041 133.344 47.1739 133.344 46.2097C133.344 44.2529 132.268 43.2709 130.111 43.2709H127.972V49.1484H129.9Z" fill="#BB16A3"></path>
<path d="M145.821 46.2096C145.821 47.0888 145.632 47.858 145.257 48.5174C144.878 49.1803 144.335 49.6943 143.623 50.063C142.911 50.4316 142.069 50.616 141.101 50.616C140.133 50.616 139.351 50.4423 138.643 50.0949C137.935 49.7475 137.384 49.237 136.991 48.5741C136.599 47.9112 136.406 47.1207 136.406 46.2132C136.406 45.3057 136.595 44.5648 136.97 43.9054C137.346 43.2425 137.889 42.7285 138.604 42.3598C139.316 41.9912 140.158 41.8068 141.126 41.8068C142.094 41.8068 142.876 41.9805 143.584 42.3315C144.292 42.6789 144.843 43.1858 145.236 43.8523C145.629 44.5187 145.825 45.3057 145.825 46.2167M144.303 46.2167C144.303 45.2206 144.026 44.4443 143.472 43.8913C142.918 43.3347 142.139 43.0546 141.129 43.0546C140.119 43.0546 139.337 43.3312 138.776 43.8913C138.215 44.4478 137.935 45.2206 137.935 46.2167C137.935 47.2128 138.212 47.9856 138.766 48.5422C139.32 49.0987 140.102 49.3752 141.108 49.3752C142.115 49.3752 142.9 49.0987 143.461 48.5422C144.022 47.9856 144.303 47.2093 144.303 46.2167Z" fill="#BB16A3"></path>
<path d="M156.191 50.4069V44.1288L153.214 50.4069H152.028L149.041 44.1784V50.4069H147.669V42.016H149.437L152.656 48.8081L155.875 42.016H157.587V50.4069H156.191Z" fill="#BB16A3"></path>
<path d="M168.85 46.2096C168.85 47.0888 168.661 47.858 168.286 48.5174C167.907 49.1803 167.363 49.6943 166.651 50.063C165.94 50.4316 165.098 50.616 164.13 50.616C163.162 50.616 162.38 50.4423 161.672 50.0949C160.963 49.7475 160.413 49.237 160.02 48.5741C159.627 47.9112 159.435 47.1207 159.435 46.2132C159.435 45.3057 159.62 44.5648 159.999 43.9054C160.374 43.2425 160.918 42.7285 161.633 42.3598C162.345 41.9912 163.187 41.8068 164.155 41.8068C165.123 41.8068 165.905 41.9805 166.613 42.3315C167.321 42.6789 167.872 43.1858 168.265 43.8523C168.657 44.5187 168.854 45.3057 168.854 46.2167M167.332 46.2167C167.332 45.2206 167.055 44.4443 166.501 43.8913C165.947 43.3347 165.168 43.0546 164.158 43.0546C163.148 43.0546 162.366 43.3312 161.805 43.8913C161.244 44.4478 160.964 45.2206 160.964 46.2167C160.964 47.2128 161.241 47.9856 161.795 48.5422C162.349 49.0987 163.131 49.3752 164.137 49.3752C165.144 49.3752 165.929 49.0987 166.49 48.5422C167.051 47.9856 167.332 47.2093 167.332 46.2167Z" fill="#BB16A3"></path>
<path d="M178.291 50.4069L176.187 43.9196L174.058 50.4069H172.501L169.699 42.016H171.337L173.339 48.6096L175.478 42.0621H176.965L179.115 48.6308L181.128 42.016H182.709L179.907 50.4069H178.291Z" fill="#BB16A3"></path>
<path d="M184.242 50.4069V42.016H191.01V43.2709H185.718V45.4581H190.754V46.7166H185.718V49.1484H191.266L191.055 50.4069H184.242Z" fill="#BB16A3"></path>
<path d="M198.041 42.016H199.517V47.305C199.517 48.3933 199.216 49.2193 198.616 49.7794C198.016 50.3395 197.133 50.6195 195.972 50.6195C194.811 50.6195 194.001 50.3785 193.384 49.8928C192.767 49.4072 192.409 48.6876 192.307 47.7304H193.808C193.903 48.3012 194.12 48.7195 194.471 48.9818C194.818 49.2441 195.313 49.3753 195.947 49.3753C196.67 49.3753 197.196 49.2051 197.536 48.8648C197.872 48.5245 198.041 47.9928 198.041 47.2731V42.0196V42.016Z" fill="#BB16A3"></path>
<path d="M52.4043 25.2788C52.4043 11.3402 41.1861 0 27.3975 0C13.6088 0 2.39062 11.3402 2.39062 25.2788C2.39062 34.7154 7.53507 42.9538 15.1308 47.2963C12.8899 49.1326 10.0389 50.2351 6.93541 50.2351V64C15.1272 64 22.4634 60.2424 27.3554 54.3472C32.2473 60.2424 39.5835 64 47.7754 64V50.2351C44.6894 50.2351 41.8489 49.1432 39.6151 47.3212C47.2388 42.9857 52.4043 34.7331 52.4043 25.2788ZM27.3975 13.7649C33.6781 13.7649 38.791 18.9299 38.791 25.2824C38.791 31.6349 33.6816 36.7998 27.3975 36.7998C21.1133 36.7998 16.0039 31.6349 16.0039 25.2824C16.0039 18.9299 21.1133 13.7649 27.3975 13.7649Z" fill="#BB16A3"></path>
</svg>