<svg width="32" height="32" viewBox="0 0 32 32" fill="none" xmlns="http://www.w3.org/2000/svg">
<path d="M28.0068 12.6394C28.0068 5.6701 22.3977 0 15.5034 0C8.60909 0 3 5.6701 3 12.6394C3 17.3577 5.57222 21.4769 9.37006 23.6482C8.24965 24.5663 6.82414 25.1175 5.27239 25.1175V32C9.36831 32 13.0364 30.1212 15.4824 27.1736C17.9284 30.1212 21.5964 32 25.6924 32V25.1175C24.1494 25.1175 22.7291 24.5716 21.6122 23.6606C25.4241 21.4929 28.0068 17.3666 28.0068 12.6394ZM15.5034 6.88246C18.6437 6.88246 21.2002 9.46494 21.2002 12.6412C21.2002 15.8174 18.6455 18.3999 15.5034 18.3999C12.3613 18.3999 9.80666 15.8174 9.80666 12.6412C9.80666 9.46494 12.3613 6.88246 15.5034 6.88246Z" fill="#BB16A3"></path>
</svg>